<svg width="644" height="448" viewBox="0 0 644 448" fill="none" xmlns="http://www.w3.org/2000/svg">
<g clip-path="url(#clip0_5_5)">
<path d="M483.447 400.154H107.796V403.126H483.447V400.154Z" fill="#C1A78C"/>
<path d="M643.357 400.154H622.125V403.126H643.357V400.154Z" fill="#C1A78C"/>
<path d="M131.997 354.537L135.263 401.64H186.488L183.073 350.97L131.997 354.537Z" fill="#C1A78C"/>
<path d="M188.121 403.126H133.778L130.363 353.051L184.409 349.336L188.121 403.126ZM136.599 400.154H184.854L181.588 352.605L133.629 355.874L136.599 400.154Z" fill="#C1A78C"/>
<path d="M89.5285 401.64L148.771 257.359L101.407 243.242L36.0762 401.64H89.5285Z" fill="#C1A78C"/>
<path d="M90.5684 403.126H33.8496L100.665 241.311L150.851 256.318L90.5684 403.126ZM38.304 400.154H88.6382L146.842 258.25L102.298 244.877L38.304 400.154Z" fill="#C1A78C"/>
<path d="M210.393 401.64H266.221C266.072 399.411 265.775 397.034 265.627 394.656C263.845 367.316 266.072 346.81 272.457 333.437C278.841 320.064 288.492 312.783 301.261 312.04C313.882 311.148 324.127 316.943 331.997 329.425C340.014 341.907 344.766 361.818 346.696 389.158C346.993 393.468 347.141 397.628 347.29 401.64H403.86C403.86 396.291 403.712 390.941 403.266 385.295C402.078 367.316 399.109 350.822 394.358 335.666C389.606 320.658 382.925 307.879 374.313 297.181C365.701 286.631 355.011 278.607 342.538 273.109C329.918 267.76 315.515 265.531 299.034 266.571C282.256 267.76 268.002 271.921 256.124 279.053C244.394 286.185 234.892 295.546 227.765 307.137C220.638 318.727 215.589 332.397 212.62 347.85C209.799 363.452 208.908 380.243 210.096 398.222C210.244 399.56 210.244 400.6 210.393 401.64Z" fill="white"/>
<path d="M405.196 403.126H345.804V401.64C345.656 397.628 345.507 393.467 345.21 389.307C343.28 362.263 338.38 342.352 330.808 330.168C323.236 318.132 313.436 312.634 301.558 313.526C289.234 314.417 280.177 321.104 273.941 334.18C267.705 347.404 265.477 367.761 267.259 394.656C267.408 397.034 267.556 399.262 267.853 401.491L268.002 403.126H209.204L209.056 400.897C209.056 400.154 208.907 399.411 208.907 398.668C207.719 380.837 208.462 363.749 211.431 347.85C214.401 332.1 219.598 318.281 226.724 306.542C233.851 294.803 243.503 285.145 255.529 277.864C267.556 270.583 282.107 266.423 299.034 265.234C315.515 264.045 330.511 266.274 343.28 271.92C355.901 277.418 366.74 285.739 375.5 296.438C384.112 307.136 390.942 320.212 395.842 335.369C400.593 350.525 403.711 367.315 404.899 385.295C405.344 390.644 405.493 396.142 405.493 401.64L405.196 403.126ZM348.625 400.154H402.226C402.226 395.25 402.078 390.198 401.632 385.444C400.444 367.613 397.475 351.119 392.724 336.26C387.972 321.401 381.439 308.622 372.976 298.37C364.513 287.968 353.971 280.093 341.795 274.744C329.472 269.394 315.069 267.314 298.885 268.354C282.404 269.543 268.298 273.555 256.717 280.539C245.136 287.522 235.782 296.884 228.952 308.177C221.973 319.469 216.925 333.14 214.104 348.445C211.283 364.047 210.392 380.837 211.58 398.52C211.58 399.114 211.728 399.708 211.728 400.303H264.438C264.29 398.519 264.141 396.736 263.993 394.953C262.211 367.464 264.438 346.661 270.971 332.991C277.653 319.024 287.749 311.594 301.112 310.703C302.003 310.703 302.894 310.554 303.785 310.554C315.663 310.554 325.611 316.646 333.184 328.682C341.201 341.461 346.101 361.223 348.18 389.158C348.328 392.873 348.477 396.588 348.625 400.154Z" fill="#C1A78C"/>
<path d="M611.288 401.64L607.576 378.163L580.85 380.094L576.841 320.807L525.764 324.373L529.922 383.512L477.063 387.078L542.691 227.195L495.326 213.079L417.375 401.64H611.288Z" fill="#C1A78C"/>
<path d="M613.069 403.126H415.296L494.435 211.147L544.769 226.154L479.29 385.443L528.288 382.026L524.279 322.887L578.325 319.172L582.334 378.46L608.764 376.677L613.069 403.126ZM419.602 400.154H609.506L606.239 379.797L579.513 381.58L575.504 322.292L527.397 325.561L531.406 384.7L474.687 388.564L540.612 227.938L496.068 214.564L419.602 400.154Z" fill="#C1A78C"/>
<path d="M322.942 280.984C323.388 287.374 310.47 293.466 294.137 294.803C277.656 296.141 263.996 292.129 263.402 285.739C262.957 279.35 275.875 273.258 292.207 271.92C308.688 270.583 322.497 274.595 322.942 280.984Z" fill="#C1A78C"/>
<path d="M351.894 284.551C351.004 287.077 345.361 287.522 339.422 285.294C333.483 283.213 329.474 279.35 330.365 276.824C331.256 274.298 336.898 273.852 342.837 276.081C348.776 278.161 352.785 282.025 351.894 284.551Z" fill="#C1A78C"/>
<path d="M17.8174 400.154H0V403.126H17.8174V400.154Z" fill="#C1A78C"/>
<path d="M92.3554 424.374H74.9834V427.346H92.3554V424.374Z" fill="#C1A78C"/>
<path d="M148.776 424.374H117.299V427.346H148.776V424.374Z" fill="#C1A78C"/>
<path d="M575.354 424.374H514.329V427.346H575.354V424.374Z" fill="#C1A78C"/>
<path d="M64.588 445.028H49.1462V448H64.588V445.028Z" fill="#C1A78C"/>
<path d="M598.369 445.028H582.927V448H598.369V445.028Z" fill="#C1A78C"/>
<path d="M277.21 282.619C275.131 282.619 273.498 280.984 273.498 278.904C273.646 246.511 263.847 225.263 261.471 221.251C261.026 220.805 260.58 220.062 260.432 219.319C260.135 217.982 260.58 216.496 261.768 215.605C262.956 214.713 264.441 214.564 265.777 215.159C269.192 216.793 274.537 233.287 274.537 233.435C277.507 242.945 281.07 258.547 281.07 278.904C280.922 280.984 279.14 282.619 277.21 282.619Z" fill="#C1A78C"/>
<path d="M365.407 240.865C364.516 240.865 363.625 240.568 362.882 239.825C361.398 238.339 361.398 236.11 362.734 234.624C365.258 231.95 371.791 223.331 368.822 218.279C365.852 213.079 353.677 208.324 346.698 206.541C344.768 206.095 343.432 204.015 344.026 202.083C344.471 200.151 346.55 198.963 348.48 199.408C350.559 200.003 369.564 204.906 375.206 214.564C381.442 225.412 368.525 239.082 368.079 239.676C367.337 240.568 366.446 240.865 365.407 240.865Z" fill="#C1A78C"/>
<path d="M339.274 105.053C338.68 105.053 338.086 104.905 337.492 104.608C335.71 103.716 334.968 101.339 336.007 99.5555L360.655 52.601C361.546 50.8179 363.921 50.0749 365.703 51.1151C367.485 52.0066 368.227 54.384 367.188 56.1671L342.54 103.122C341.946 104.31 340.61 105.053 339.274 105.053Z" fill="#C1A78C"/>
<path d="M243.059 137.743C242.91 137.743 242.762 137.743 242.613 137.743L182.925 131.503C180.846 131.354 179.361 129.422 179.658 127.491C179.807 125.41 181.737 123.924 183.667 124.222L243.356 130.462C245.434 130.611 246.919 132.543 246.622 134.474C246.622 136.406 244.989 137.743 243.059 137.743Z" fill="#C1A78C"/>
<path d="M368.524 208.175L269.786 238.785C267.856 239.379 265.629 238.339 265.035 236.259L228.954 119.467C228.657 118.575 228.806 117.535 229.251 116.643L242.02 92.2747C242.466 91.3831 243.357 90.6402 244.248 90.343L324.426 65.5284C326.356 64.934 328.583 65.9742 329.177 68.0544L371.048 203.42C371.642 205.501 370.454 207.581 368.524 208.175Z" fill="white"/>
<path d="M268.598 240.419C266.223 240.419 264.293 238.933 263.55 236.705L227.47 119.912C227.024 118.575 227.173 117.238 227.767 115.901L240.536 91.5317C241.13 90.343 242.318 89.3029 243.654 89.0057L323.833 64.1911C324.278 64.0425 324.872 63.8939 325.317 63.8939C327.693 63.8939 329.623 65.3798 330.366 67.6087L372.237 202.975C372.682 204.312 372.534 205.798 371.791 206.986C371.197 208.175 370.009 209.215 368.673 209.512L270.232 240.122C269.638 240.271 269.192 240.419 268.598 240.419ZM325.466 66.8657C325.169 66.8657 325.02 66.8657 324.723 67.0143L244.545 91.8289C243.951 91.9775 243.506 92.4233 243.209 93.0176L230.588 117.386C230.291 117.981 230.291 118.575 230.44 119.17L266.52 235.813C266.817 237.002 268.153 237.745 269.341 237.299L368.079 206.689C368.673 206.541 369.119 206.095 369.415 205.501C369.712 204.906 369.712 204.312 369.564 203.717L327.693 68.3516C327.396 67.6087 326.505 66.8657 325.466 66.8657Z" fill="#C1A78C"/>
<path d="M303.342 136.852C305.124 144.281 301.709 152.602 295.918 155.128C290.128 157.803 283.891 153.791 282.11 146.213C280.328 138.783 283.743 130.462 289.534 127.936C295.473 125.41 301.709 129.422 303.342 136.852Z" fill="#C1A78C"/>
<path d="M289.683 128.085C287.01 129.274 284.932 131.651 283.595 134.474C286.268 137.297 290.128 138.189 293.692 136.555C296.364 135.366 298.443 132.988 299.779 130.165C297.107 127.342 293.246 126.45 289.683 128.085Z" fill="#D4CBC2"/>
<path d="M242.764 91.2345L228.955 117.238C228.955 117.535 228.807 117.684 228.807 117.981L245.585 112.78C247.515 112.186 248.554 110.105 247.96 108.174L242.764 91.2345Z" fill="#D4CBC2"/>
<path d="M227.173 120.061L227.47 117.832C227.47 117.535 227.618 117.238 227.618 116.792L227.767 116.495L241.724 90.1943L241.872 90.0457L243.654 88.5598L249.593 107.728C250.039 109.065 249.89 110.403 249.296 111.74C248.702 112.929 247.514 113.82 246.327 114.266L227.173 120.061ZM242.466 94.9492L231.627 115.603L245.139 111.443C245.733 111.294 246.178 110.848 246.475 110.403C246.772 109.808 246.772 109.214 246.624 108.768L242.466 94.9492Z" fill="#C1A78C"/>
<path d="M307.203 111.591C307.352 113.374 306.164 114.86 304.531 115.009C302.749 115.158 301.264 113.969 301.116 112.334C300.967 110.551 302.155 109.065 303.788 108.917C305.421 108.62 307.055 109.808 307.203 111.591Z" fill="#C1A78C"/>
<path d="M276.468 123.181C276.616 124.965 275.428 126.45 273.795 126.599C272.013 126.748 270.529 125.559 270.38 123.924C270.232 122.141 271.42 120.655 273.053 120.507C274.686 120.21 276.319 121.398 276.468 123.181Z" fill="#C1A78C"/>
<path d="M140.016 30.0153H85.5244C84.0396 30.0153 82.7033 29.4209 81.664 28.3808C80.6246 27.3406 80.1792 25.8547 80.1792 24.5174C80.1792 23.7745 80.3277 22.8829 80.4762 22.14C81.664 17.8308 85.079 14.5619 89.5333 13.6703C92.0575 13.2245 94.4331 13.5217 96.5118 14.5619C98.4421 6.09221 105.866 0 114.626 0C123.238 0 130.513 5.94362 132.444 14.2647C133.483 14.1161 134.522 13.9675 135.562 14.1161C140.907 14.7104 145.064 19.1682 145.361 24.5174C145.361 26.0033 144.916 27.3406 143.877 28.3808C142.837 29.4209 141.501 30.0153 140.016 30.0153ZM91.7605 16.0478C91.1666 16.0478 90.7212 16.0478 90.1273 16.1964C86.8607 16.7907 84.0396 19.3167 83.1488 22.5857C83.0003 23.1801 82.8518 23.7745 82.8518 24.3688C82.8518 25.1118 83.0003 25.8547 83.5942 26.3005C84.0396 26.8949 84.782 27.192 85.5244 27.192H140.016C140.758 27.192 141.501 26.8949 141.946 26.3005C142.392 25.8547 142.689 25.1118 142.689 24.5174C142.54 20.5055 139.274 16.9393 135.265 16.6421C134.077 16.4935 132.889 16.6421 131.85 16.9393L130.365 17.3851L130.068 15.8992C128.88 8.17247 122.347 2.52604 114.478 2.52604C106.46 2.52604 99.6299 8.61824 98.739 16.6421L98.4421 18.871L96.6603 17.5337C95.324 16.6421 93.5423 16.0478 91.7605 16.0478Z" fill="#C1A78C"/>
<path d="M511.955 29.4209H467.114C465.333 29.4209 463.551 28.678 462.363 27.4893C461.175 26.3005 460.433 24.666 460.581 23.0315C460.581 22.2886 460.73 21.397 460.73 20.6541C461.621 15.7506 465.333 11.8873 470.084 10.5499C472.163 9.95559 474.39 9.95559 476.617 10.4014C479.587 4.30915 485.674 0.445801 492.653 0.445801C500.522 0.445801 507.649 5.79505 509.728 13.3732C514.776 13.6703 518.785 17.9795 518.785 23.0315C518.636 26.5977 515.667 29.4209 511.955 29.4209ZM473.499 12.7788C472.608 12.7788 471.717 12.9274 470.826 13.076C466.966 14.1161 464.145 17.2365 463.402 21.0999C463.254 21.6942 463.254 22.2886 463.254 23.0315C463.254 23.9231 463.699 24.8146 464.293 25.5576C465.036 26.3005 466.075 26.7463 467.263 26.7463H512.103C514.182 26.7463 516.112 25.1118 516.112 23.0315C516.112 19.1682 512.994 15.8992 509.134 15.8992C508.985 15.8992 508.985 15.8992 508.837 15.8992H507.649L507.352 14.8591C505.867 8.02391 499.631 2.97184 492.653 2.97184C486.417 2.97184 480.923 6.6866 478.696 12.4816L478.102 13.8189L476.914 13.3732C475.726 12.9274 474.538 12.7788 473.499 12.7788Z" fill="#C1A78C"/>
<path d="M417.522 24.5174C417.374 21.2484 414.701 18.5738 411.583 18.5738V18.4252C414.85 18.4252 417.522 15.7506 417.522 12.4816H417.671C417.671 15.7506 420.343 18.4252 423.61 18.4252V18.5738C420.195 18.7224 417.522 21.397 417.522 24.5174Z" fill="white"/>
<path d="M186.491 49.9264C186.342 46.6575 183.67 43.9828 180.552 43.9828V43.8342C183.818 43.8342 186.491 41.1596 186.491 37.8906H186.639C186.639 41.1596 189.312 43.8342 192.578 43.8342V43.9828C189.163 44.1314 186.491 46.806 186.491 49.9264Z" fill="white"/>
<path d="M317.745 24.9632H317.448C317.448 18.2766 312.103 12.9274 305.421 12.9274V12.6302C312.103 12.6302 317.448 7.28093 317.448 0.59436H317.745C317.745 7.28093 323.09 12.6302 329.772 12.6302V12.9274C323.09 12.7788 317.745 18.2766 317.745 24.9632Z" fill="white"/>
<path d="M450.782 83.2106H450.634C450.634 78.3071 446.625 74.4437 441.874 74.4437V74.2952C446.773 74.2952 450.634 70.2832 450.634 65.5283H450.782C450.782 70.4318 454.791 74.2952 459.542 74.2952V74.4437C454.643 74.4437 450.782 78.3071 450.782 83.2106Z" fill="white"/>
<path d="M107.797 110.105H107.648C107.648 105.202 103.639 101.339 98.8882 101.339V101.19C103.788 101.19 107.648 97.1781 107.648 92.4232H107.797C107.797 97.3267 111.806 101.19 116.557 101.19V101.339C111.806 101.339 107.797 105.351 107.797 110.105Z" fill="white"/>
</g>
<defs>
<clipPath id="clip0_5_5">
<rect width="644" height="448" fill="white"/>
</clipPath>
</defs>
</svg>
