<svg width="42" height="42" viewBox="0 0 42 42" fill="none" xmlns="http://www.w3.org/2000/svg">
<g clip-path="url(#clip0_61_205)">
<path d="M21 42C32.598 42 42 32.598 42 21C42 9.40202 32.598 0 21 0C9.40202 0 0 9.40202 0 21C0 32.598 9.40202 42 21 42Z" fill="#C1A78C"/>
<path d="M26.5815 37.7819L27.1603 37.0579L27.9822 35.1472C27.9822 35.1472 33.0177 29.3202 33.0524 28.2521C33.0871 27.184 33.1682 22.1995 33.1219 21.1907C33.0756 20.182 30.9688 20.6923 30.8762 22.247C30.772 23.8016 30.5868 26.3769 30.5868 26.3769L26.9057 31.041" stroke="white" stroke-miterlimit="10" stroke-linecap="round" stroke-linejoin="round"/>
<path d="M22.1248 36.9868L22.8772 31.7887C22.8772 31.7887 25.1692 28.976 26.9287 27.1128C28.6882 25.2496 29.9384 27.1484 29.9384 27.1484" stroke="white" stroke-miterlimit="10" stroke-linecap="round" stroke-linejoin="round"/>
<path d="M14.5427 37.7819L13.9639 37.0579L13.1536 35.1472C13.1536 35.1472 8.11812 29.3202 8.08339 28.2521C8.04866 27.184 7.96763 22.1995 8.01393 21.1907C8.06024 20.182 10.167 20.6923 10.2596 22.247C10.3638 23.8016 10.549 26.3769 10.549 26.3769L14.2301 31.041" stroke="white" stroke-miterlimit="10" stroke-linecap="round" stroke-linejoin="round"/>
<path d="M18.9995 36.9868L18.247 31.7887C18.247 31.7887 15.955 28.976 14.1955 27.1128C12.436 25.2496 11.1858 27.1484 11.1858 27.1484" stroke="white" stroke-miterlimit="10" stroke-linecap="round" stroke-linejoin="round"/>
<path d="M27.0097 18.4374C27.0097 22.0927 24.1273 25.0478 20.562 25.0478C16.9966 25.0478 14.1143 22.0927 14.1143 18.4374C14.1143 13.2393 20.562 6 20.562 6C20.562 6 27.0097 13.1207 27.0097 18.4374Z" stroke="white" stroke-miterlimit="10" stroke-linecap="round" stroke-linejoin="round"/>
<path d="M20.5623 11.4711V28.6675" stroke="white" stroke-miterlimit="10" stroke-linecap="round" stroke-linejoin="round"/>
<path d="M17.2629 19.0664L20.6778 22.247L23.8611 19.0664" stroke="white" stroke-miterlimit="10" stroke-linecap="round" stroke-linejoin="round"/>
<path d="M17.9111 16.0995L20.6546 18.6629L23.2244 16.0995" stroke="white" stroke-miterlimit="10" stroke-linecap="round" stroke-linejoin="round"/>
<path d="M18.687 13.1206L20.6317 14.9364L22.4376 13.1206" stroke="white" stroke-miterlimit="10" stroke-linecap="round" stroke-linejoin="round"/>
</g>
<defs>
<clipPath id="clip0_61_205">
<rect width="42" height="42" fill="white"/>
</clipPath>
</defs>
</svg>
