<svg width="274" height="270" viewBox="0 0 274 270" fill="none" xmlns="http://www.w3.org/2000/svg">
    <path opacity="0.5" d="M272.51 130.764C268.545 130.764 266.502 132.426 264.698 133.894C263.065 135.221 261.656 136.371 258.735 136.371C255.815 136.371 254.405 135.221 252.773 133.894C250.969 132.426 248.925 130.764 244.96 130.764C240.995 130.764 238.952 132.426 237.147 133.894C235.515 135.221 234.105 136.371 231.185 136.371C228.265 136.371 226.855 135.225 225.223 133.894C223.419 132.426 221.375 130.764 217.41 130.764C213.445 130.764 211.402 132.426 209.601 133.894C207.969 135.221 206.559 136.371 203.639 136.371C200.719 136.371 199.309 135.225 197.677 133.894C196.082 132.595 194.295 131.144 191.152 130.826C190.93 127.989 190.481 125.218 189.826 122.522L216.688 115.431C218.241 118.975 221.82 121.46 225.978 121.46C231.554 121.46 236.094 116.986 236.094 111.49C236.094 111.093 236.069 110.704 236.023 110.324L247.39 107.318C248.162 107.115 248.623 106.329 248.413 105.564C248.208 104.804 247.411 104.349 246.634 104.555L235.268 107.558C233.715 104.01 230.136 101.52 225.974 101.52C220.398 101.52 215.858 105.99 215.858 111.49C215.858 111.887 215.883 112.28 215.929 112.664L189.067 119.756C187.716 115.278 185.786 111.039 183.36 107.132C185.257 106.412 186.78 106.664 188.496 106.95C190.804 107.334 193.414 107.768 196.85 105.813C200.282 103.861 201.21 101.413 202.024 99.2502C202.762 97.2943 203.4 95.6072 205.93 94.1682C208.46 92.7291 210.264 93.0269 212.35 93.3742C214.653 93.7588 217.267 94.193 220.704 92.2371C224.136 90.2812 225.063 87.8373 225.877 85.6747C226.616 83.7188 227.254 82.0317 229.784 80.5927C232.314 79.1537 234.118 79.4514 236.203 79.7988C238.507 80.1833 241.121 80.6134 244.557 78.6616C247.99 76.7057 248.917 74.2578 249.735 72.0992C250.474 70.1433 251.111 68.4562 253.642 67.0172C254.334 66.6203 254.573 65.7478 254.174 65.0655C253.772 64.3832 252.886 64.1475 252.194 64.5403C248.762 66.4962 247.834 68.94 247.016 71.1027C246.278 73.0586 245.64 74.7457 243.11 76.1847C240.58 77.6237 238.775 77.326 236.69 76.9786C234.382 76.5941 231.773 76.1599 228.336 78.1158C224.904 80.0675 223.977 82.5155 223.163 84.6781C222.424 86.634 221.786 88.3212 219.256 89.7602C216.726 91.1992 214.926 90.9014 212.837 90.5541C210.533 90.1695 207.919 89.7353 204.482 91.6912C201.05 93.6471 200.123 96.091 199.305 98.2536C198.566 100.21 197.929 101.897 195.398 103.336C192.868 104.775 191.064 104.477 188.979 104.13C186.931 103.79 184.64 103.414 181.753 104.696C180.138 102.385 178.342 100.201 176.391 98.1709L196.074 78.7733C197.089 79.5176 198.243 80.0799 199.506 80.4149C200.379 80.6464 201.26 80.7581 202.141 80.7581C203.895 80.7581 205.624 80.3032 207.185 79.4183C209.526 78.0868 211.2 75.9366 211.897 73.3646C212.597 70.7926 212.236 68.1048 210.885 65.8015C210.684 65.4624 210.462 65.1399 210.227 64.8298L218.551 56.6258C219.118 56.0675 219.118 55.1619 218.551 54.6037C217.985 54.0455 217.066 54.0455 216.5 54.6037L208.183 62.8036C207.168 62.0551 206.006 61.4928 204.747 61.1578C202.137 60.4673 199.41 60.8229 197.073 62.1544C192.243 64.9042 190.582 71.0117 193.372 75.7712C193.573 76.1144 193.796 76.4369 194.035 76.7512L174.348 96.1489C170.957 92.9772 167.152 90.2357 163.023 88.0027C164.298 86.448 165.746 85.9145 167.374 85.3149C169.564 84.5086 172.048 83.5989 174.033 80.2164C176.013 76.8339 175.577 74.2578 175.187 71.9835C174.834 69.9283 174.532 68.1502 175.992 65.6568C177.453 63.1633 179.165 62.5348 181.149 61.807C183.339 61.0007 185.823 60.091 187.808 56.7043C189.793 53.3218 189.352 50.7457 188.962 48.4714C188.609 46.4163 188.307 44.6382 189.768 42.1447C191.228 39.6513 192.94 39.0227 194.924 38.295C197.115 37.4886 199.598 36.5789 201.583 33.1923C203.564 29.8098 203.127 27.2336 202.737 24.9593C202.385 22.9001 202.082 21.1261 203.543 18.6327C203.945 17.9504 203.706 17.0737 203.01 16.6809C202.317 16.2881 201.428 16.5196 201.029 17.2061C199.045 20.5886 199.485 23.1647 199.875 25.439C200.228 27.4941 200.53 29.2722 199.07 31.7657C197.61 34.2591 195.894 34.8877 193.913 35.6154C191.723 36.4218 189.239 37.3315 187.254 40.7181C185.274 44.1006 185.71 46.6768 186.1 48.9511C186.453 51.0062 186.755 52.7843 185.295 55.2777C183.835 57.7712 182.123 58.3997 180.138 59.1275C177.948 59.9338 175.464 60.8436 173.479 64.2302C171.499 67.6127 171.935 70.1888 172.325 72.4631C172.678 74.5183 172.98 76.2963 171.52 78.7898C170.059 81.2832 168.347 81.9118 166.363 82.6395C164.42 83.3508 162.251 84.153 160.405 86.6795C157.854 85.4762 155.198 84.4631 152.445 83.6568L159.645 57.184C160.035 57.2295 160.426 57.2543 160.812 57.2543C164.311 57.2543 167.718 55.468 169.589 52.2715C172.38 47.5121 170.718 41.4004 165.889 38.6547C165.54 38.4562 165.188 38.2867 164.827 38.1337L167.869 26.9276C168.075 26.1668 167.617 25.3811 166.841 25.1785C166.065 24.9759 165.272 25.4266 165.066 26.1916L162.024 37.3935C158.13 36.9428 154.153 38.754 152.072 42.306C149.281 47.0655 150.943 53.1771 155.772 55.9228C156.121 56.1213 156.482 56.295 156.842 56.448L149.642 82.9166C145.581 81.9573 141.339 81.4445 136.983 81.4445C136.555 81.4445 136.123 81.4528 135.695 81.4611C136.014 79.4928 136.992 78.3184 138.099 76.9993C139.589 75.2212 141.276 73.2116 141.276 69.3039C141.276 65.3963 139.589 63.3825 138.099 61.6085C136.752 60 135.586 58.6106 135.586 55.7326C135.586 52.8546 136.748 51.4652 138.099 49.8566C139.589 48.0786 141.276 46.0648 141.276 42.1571C141.276 38.2495 139.589 36.2357 138.099 34.4576C136.752 32.8491 135.586 31.4597 135.586 28.5817C135.586 25.7037 136.752 24.3143 138.099 22.7057C139.589 20.9276 141.276 18.9139 141.276 15.0062C141.276 11.0986 139.589 9.08477 138.099 7.30668C136.752 5.69814 135.586 4.30875 135.586 1.43074C135.586 0.640937 134.936 0 134.134 0C133.333 0 132.682 0.640937 132.682 1.43074C132.682 5.33839 134.369 7.35217 135.859 9.13025C137.206 10.7388 138.372 12.1282 138.372 15.0062C138.372 17.8842 137.206 19.2736 135.859 20.8821C134.369 22.6602 132.682 24.674 132.682 28.5817C132.682 32.4893 134.369 34.5031 135.859 36.2771C137.206 37.8856 138.372 39.275 138.372 42.153C138.372 45.031 137.21 46.4204 135.859 48.0289C134.369 49.807 132.682 51.8208 132.682 55.7285C132.682 59.6361 134.369 61.6499 135.859 63.4238C137.206 65.0324 138.372 66.4218 138.372 69.2998C138.372 72.1778 137.21 73.5672 135.859 75.1757C134.541 76.7471 133.068 78.5086 132.745 81.6058C129.867 81.8249 127.056 82.2674 124.32 82.9125L117.124 56.4397C120.72 54.9097 123.242 51.3825 123.242 47.2846C123.242 41.7891 118.706 37.315 113.125 37.315C112.723 37.315 112.328 37.3398 111.942 37.3853L108.892 26.1833C108.686 25.4225 107.889 24.9676 107.113 25.1744C106.341 25.377 105.879 26.1626 106.089 26.9276L109.135 38.1296C105.535 39.6595 103.009 43.1868 103.009 47.2888C103.009 52.7843 107.545 57.2584 113.125 57.2584C113.528 57.2584 113.927 57.2336 114.317 57.1881L121.513 83.6609C116.969 84.9924 112.668 86.8946 108.703 89.2846C107.973 87.4197 108.229 85.9145 108.518 84.2233C108.909 81.9531 109.349 79.377 107.364 75.9903C105.384 72.6078 102.9 71.694 100.706 70.8918C98.7209 70.164 97.009 69.5355 95.5488 67.042C94.0886 64.5486 94.3907 62.7705 94.7432 60.7154C95.1334 58.4411 95.574 55.8691 93.5893 52.4824C91.6047 49.0999 89.1249 48.1861 86.9304 47.3839C84.9458 46.6561 83.2339 46.0276 81.7737 43.5341C80.3135 41.0407 80.6156 39.2626 80.9681 37.2074C81.3583 34.9332 81.7989 32.3611 79.8142 28.9745C77.8296 25.592 75.3498 24.6782 73.1553 23.8718C71.1707 23.144 69.4588 22.5155 67.9986 20.0221C67.5958 19.3398 66.7104 19.1041 66.0181 19.4969C65.3258 19.8939 65.0866 20.7664 65.4853 21.4487C67.4699 24.8312 69.9497 25.745 72.1441 26.5513C74.1288 27.2791 75.8407 27.9076 77.3009 30.4011C78.761 32.8946 78.4589 34.6726 78.1065 36.7278C77.7163 39.0021 77.2799 41.5741 79.2604 44.9607C81.2408 48.3432 83.7248 49.2571 85.9192 50.0593C87.9039 50.787 89.6158 51.4156 91.076 53.909C92.5362 56.4025 92.234 58.1806 91.8816 60.2357C91.4914 62.51 91.0508 65.082 93.0355 68.4686C95.0159 71.8511 97.4999 72.765 99.6943 73.5672C101.679 74.295 103.391 74.9235 104.851 77.417C106.311 79.9104 106.009 81.6885 105.657 83.7436C105.313 85.7615 104.931 88.0152 106.232 90.8642C103.886 92.4562 101.671 94.226 99.6104 96.1489L79.9275 76.7471C82.2646 73.6499 82.6632 69.3535 80.5821 65.8015C79.231 63.4941 77.0491 61.8442 74.4393 61.1578C71.8294 60.4714 69.1021 60.8229 66.765 62.1544C66.4167 62.3529 66.0895 62.5679 65.7748 62.7994L57.4501 54.5996C56.8837 54.0413 55.9648 54.0413 55.3983 54.5996C54.8319 55.1578 54.8319 56.0634 55.3983 56.6216L63.7188 64.8215C61.3775 67.9187 60.9789 72.2233 63.06 75.7753C64.9314 78.9717 68.3385 80.7581 71.8378 80.7581C73.554 80.7581 75.291 80.328 76.8771 79.4225C77.2253 79.224 77.5568 79.0048 77.8757 78.7733L97.5586 98.175C94.3404 101.516 91.5585 105.267 89.2927 109.336C87.7151 108.079 87.1738 106.652 86.5654 105.048C85.7472 102.889 84.8241 100.441 81.3919 98.4852C77.9596 96.5334 75.3456 96.9635 73.0379 97.348C70.9483 97.6954 69.1483 97.9931 66.6181 96.5541C64.088 95.1151 63.4502 93.428 62.7118 91.4721C61.8936 89.3136 60.9705 86.8656 57.5382 84.9097C54.106 82.958 51.492 83.388 49.1842 83.7726C47.0989 84.1199 45.2946 84.4176 42.7645 82.9786C40.2344 81.5396 39.5966 79.8525 38.8581 77.8966C38.0399 75.7381 37.1168 73.2901 33.6804 71.3342C30.244 69.3784 27.6299 69.8125 25.3264 70.1971C23.2368 70.5444 21.4368 70.8422 18.9067 69.4032C18.2144 69.0103 17.3248 69.2419 16.9262 69.9283C16.5276 70.6106 16.7626 71.4873 17.4591 71.8801C20.8955 73.836 23.5054 73.4018 25.8131 73.0172C27.8985 72.6699 29.7027 72.3722 32.2328 73.8112C34.7629 75.2502 35.4007 76.9373 36.1392 78.8932C36.9574 81.0517 37.8805 83.4996 41.3169 85.4555C44.7492 87.4073 47.3632 86.9731 49.6709 86.5927C51.7605 86.2453 53.5605 85.9476 56.0907 87.3866C58.6208 88.8256 59.2586 90.5127 59.997 92.4686C60.8152 94.6272 61.7383 97.0751 65.1706 99.031C68.6028 100.983 71.2168 100.549 73.5246 100.168C75.6099 99.8208 77.4142 99.5231 79.9443 100.962C82.4744 102.401 83.1122 104.088 83.8507 106.044C84.5724 107.959 85.3864 110.096 87.9501 111.916C86.729 114.43 85.701 117.048 84.8829 119.76L58.0208 112.664C58.4739 108.831 56.6361 104.911 53.036 102.864C48.2066 100.119 42.0051 101.752 39.219 106.511C39.0176 106.855 38.8455 107.202 38.6903 107.558L27.3194 104.56C26.5474 104.357 25.7502 104.808 25.5446 105.573C25.339 106.334 25.7963 107.119 26.5726 107.322L37.9392 110.32C37.4819 114.157 39.3197 118.077 42.924 120.128C44.5142 121.034 46.2513 121.464 47.9632 121.464C51.4626 121.464 54.8696 119.677 56.741 116.481C56.9424 116.138 57.1186 115.782 57.2739 115.427L84.1318 122.522C83.1583 126.525 82.638 130.706 82.638 134.998C82.638 135.42 82.6464 135.846 82.6548 136.263C80.6576 135.949 79.466 134.986 78.1275 133.894C76.3232 132.426 74.284 130.764 70.3189 130.764C66.3538 130.764 64.3104 132.426 62.5104 133.894C60.8782 135.221 59.4683 136.371 56.548 136.371C53.6277 136.371 52.2178 135.225 50.5856 133.894C48.7814 132.426 46.738 130.764 42.7729 130.764C38.8078 130.764 36.7644 132.426 34.9644 133.894C33.3321 135.221 31.9223 136.371 29.002 136.371C26.0817 136.371 24.6718 135.221 23.0396 133.894C21.2354 132.426 19.192 130.764 15.2269 130.764C11.2618 130.764 9.21837 132.426 7.41414 133.894C5.78194 135.221 4.37212 136.371 1.45178 136.371C0.650363 136.371 0 137.012 0 137.802C0 138.591 0.650363 139.232 1.45178 139.232C5.41689 139.232 7.46029 137.57 9.26452 136.102C10.8967 134.775 12.3065 133.625 15.2269 133.625C18.1472 133.625 19.557 134.775 21.1892 136.102C22.9935 137.57 25.0369 139.232 29.002 139.232C32.9671 139.232 35.0105 137.57 36.8147 136.102C38.4469 134.775 39.8568 133.625 42.7771 133.625C45.6974 133.625 47.1073 134.771 48.7395 136.102C50.5437 137.57 52.5871 139.232 56.5522 139.232C60.5173 139.232 62.5607 137.57 64.3608 136.102C65.993 134.775 67.4028 133.625 70.3231 133.625C73.2435 133.625 74.6533 134.771 76.2855 136.102C77.8799 137.4 79.6674 138.852 82.8101 139.17C83.0325 142.007 83.4814 144.777 84.136 147.473L57.2739 154.565C55.7214 151.021 52.1423 148.536 47.9842 148.536C42.4079 148.536 37.8679 153.006 37.8679 158.506C37.8679 158.903 37.8931 159.292 37.9392 159.672L26.5726 162.678C25.8005 162.881 25.339 163.666 25.5488 164.431C25.7208 165.068 26.3082 165.49 26.9502 165.49C27.0761 165.49 27.202 165.473 27.3278 165.44L38.6945 162.438C40.247 165.986 43.8261 168.476 47.9884 168.476C53.5647 168.476 58.1047 164.006 58.1047 158.506C58.1047 158.109 58.0795 157.716 58.0334 157.331L84.8954 150.24C86.2465 154.718 88.1766 158.957 90.6018 162.864C88.7095 163.584 87.1822 163.331 85.4661 163.046C83.1583 162.662 80.5485 162.227 77.1121 164.183C73.6798 166.139 72.7525 168.583 71.9385 170.746C71.2001 172.702 70.5623 174.389 68.0322 175.828C65.502 177.267 63.6978 176.969 61.6124 176.622C59.3047 176.237 56.6949 175.803 53.2584 177.759C49.8262 179.715 48.8989 182.159 48.0849 184.321C47.3464 186.277 46.7086 187.964 44.1785 189.403C41.6484 190.842 39.8442 190.544 37.7588 190.197C35.4553 189.813 32.8412 189.378 29.4048 191.334C25.9726 193.29 25.0453 195.734 24.2271 197.897C23.4886 199.853 22.8508 201.54 20.3207 202.979C19.6284 203.376 19.3892 204.248 19.7878 204.93C20.0564 205.389 20.5431 205.646 21.0466 205.646C21.2941 205.646 21.5417 205.584 21.7725 205.456C25.2047 203.5 26.132 201.056 26.9502 198.893C27.6887 196.937 28.3265 195.25 30.8566 193.811C33.3867 192.372 35.1909 192.67 37.2763 193.017C39.5798 193.402 42.1939 193.836 45.6303 191.88C49.0625 189.924 49.9898 187.48 50.8038 185.318C51.5423 183.362 52.1801 181.675 54.7102 180.236C57.2403 178.797 59.0446 179.094 61.1299 179.442C63.4377 179.826 66.0475 180.261 69.4839 178.305C72.9162 176.349 73.8435 173.905 74.6575 171.742C75.3959 169.786 76.0337 168.099 78.5638 166.66C81.094 165.221 82.894 165.519 84.9836 165.866C87.0311 166.205 89.3179 166.582 92.2089 165.3C93.8243 167.611 95.6201 169.795 97.5712 171.825L77.8883 191.223C76.8729 190.478 75.7148 189.916 74.4561 189.581C71.8462 188.89 69.1189 189.246 66.7818 190.578C64.4405 191.909 62.7663 194.059 62.0698 196.631C61.3691 199.203 61.7299 201.891 63.081 204.194C63.2824 204.538 63.5048 204.86 63.7356 205.17L55.4151 213.374C54.8487 213.932 54.8487 214.838 55.4151 215.396C55.7004 215.673 56.0697 215.814 56.4389 215.814C56.8082 215.814 57.1816 215.673 57.4669 215.396L65.7874 207.196C67.5454 208.487 69.6853 209.181 71.8588 209.181C73.5749 209.181 75.312 208.751 76.8981 207.846C81.7275 205.096 83.3891 198.988 80.5988 194.229C80.3974 193.886 80.1709 193.563 79.9359 193.249L99.623 173.851C103.013 177.023 106.819 179.764 110.948 181.997C109.672 183.552 108.225 184.085 106.597 184.685C104.406 185.491 101.922 186.401 99.9377 189.784C97.953 193.166 98.3936 195.742 98.7838 198.017C99.1363 200.072 99.4384 201.85 97.9782 204.343C96.5181 206.837 94.8061 207.465 92.8215 208.193C90.6312 208.999 88.1473 209.909 86.1626 213.292C84.1821 216.674 84.6185 219.25 85.0087 221.524C85.3612 223.58 85.6633 225.358 84.2031 227.851C82.7429 230.345 81.031 230.973 79.0464 231.701C76.8561 232.507 74.3721 233.417 72.3875 236.804C70.4028 240.186 70.8434 242.762 71.2336 245.037C71.5861 247.096 71.8882 248.87 70.428 251.363C70.0294 252.045 70.2644 252.922 70.9609 253.315C71.1875 253.443 71.4392 253.505 71.6868 253.505C72.1903 253.505 72.677 253.249 72.9455 252.79C74.9302 249.407 74.4896 246.831 74.0994 244.557C73.747 242.502 73.4449 240.724 74.905 238.23C76.3652 235.737 78.0771 235.108 80.0618 234.38C82.252 233.574 84.736 232.664 86.7206 229.278C88.7011 225.895 88.2647 223.319 87.8745 221.045C87.5221 218.99 87.22 217.212 88.6801 214.718C90.1403 212.225 91.8522 211.596 93.8369 210.868C96.0271 210.062 98.5111 209.152 100.496 205.77C102.476 202.387 102.04 199.811 101.65 197.537C101.297 195.482 100.995 193.704 102.455 191.21C103.915 188.717 105.627 188.088 107.612 187.36C109.555 186.649 111.724 185.847 113.57 183.32C116.121 184.524 118.777 185.537 121.53 186.343L114.33 212.812C113.071 212.667 111.787 212.754 110.524 213.085C107.914 213.775 105.732 215.425 104.381 217.728C103.03 220.036 102.673 222.719 103.37 225.292C104.071 227.864 105.745 230.014 108.082 231.345C108.426 231.544 108.783 231.713 109.143 231.866L106.101 243.072C105.896 243.833 106.353 244.619 107.129 244.821C107.255 244.855 107.381 244.871 107.507 244.871C108.149 244.871 108.732 244.449 108.909 243.813L111.951 232.615C112.341 232.66 112.735 232.685 113.13 232.685C114.007 232.685 114.892 232.569 115.765 232.342C118.374 231.651 120.556 230.001 121.907 227.698C124.698 222.939 123.036 216.827 118.207 214.081C117.858 213.883 117.502 213.709 117.137 213.556L124.337 187.088C128.403 188.047 132.64 188.56 136.996 188.56C137.424 188.56 137.856 188.551 138.28 188.543C137.961 190.511 136.983 191.686 135.875 193.005C134.386 194.783 132.699 196.793 132.699 200.7C132.699 204.608 134.386 206.622 135.875 208.396C137.222 210.004 138.389 211.394 138.389 214.272C138.389 217.15 137.227 218.539 135.875 220.147C134.386 221.926 132.699 223.939 132.699 227.847C132.699 231.755 134.386 233.768 135.875 235.542C137.222 237.151 138.389 238.54 138.389 241.418C138.389 244.296 137.222 245.686 135.875 247.294C134.386 249.072 132.699 251.086 132.699 254.994C132.699 258.901 134.386 260.915 135.875 262.693C137.222 264.302 138.389 265.691 138.389 268.569C138.389 269.359 139.039 270 139.841 270C140.642 270 141.292 269.359 141.292 268.569C141.292 264.662 139.606 262.648 138.116 260.87C136.769 259.261 135.603 257.872 135.603 254.994C135.603 252.116 136.769 250.726 138.116 249.118C139.606 247.34 141.292 245.326 141.292 241.418C141.292 237.511 139.606 235.497 138.116 233.719C136.769 232.11 135.603 230.721 135.603 227.843C135.603 224.965 136.765 223.575 138.116 221.967C139.606 220.189 141.292 218.175 141.292 214.267C141.292 210.36 139.606 208.346 138.116 206.572C136.769 204.963 135.603 203.574 135.603 200.696C135.603 197.818 136.765 196.429 138.116 194.82C139.434 193.249 140.906 191.487 141.229 188.39C144.108 188.171 146.919 187.728 149.655 187.083L156.851 213.556C153.255 215.086 150.733 218.613 150.733 222.711C150.733 228.207 155.269 232.681 160.849 232.681C161.252 232.681 161.647 232.656 162.033 232.611L165.083 243.813C165.255 244.449 165.843 244.871 166.485 244.871C166.61 244.871 166.736 244.855 166.862 244.821C167.634 244.619 168.096 243.833 167.886 243.068L164.84 231.866C168.44 230.336 170.966 226.809 170.966 222.707C170.966 217.212 166.43 212.737 160.849 212.737C160.447 212.737 160.048 212.762 159.658 212.808L152.462 186.335C157.006 185.003 161.307 183.101 165.272 180.711C166.002 182.576 165.746 184.081 165.457 185.773C165.066 188.047 164.626 190.619 166.61 194.006C168.591 197.388 171.075 198.302 173.269 199.104C175.254 199.832 176.966 200.46 178.426 202.954C179.886 205.447 179.584 207.225 179.232 209.28C178.841 211.555 178.401 214.127 180.385 217.513C182.37 220.896 184.85 221.81 187.044 222.612C189.029 223.34 190.741 223.968 192.201 226.462C193.661 228.955 193.359 230.733 193.007 232.788C192.617 235.063 192.176 237.635 194.161 241.021C196.145 244.404 198.625 245.318 200.819 246.124C202.804 246.852 204.516 247.48 205.976 249.974C206.245 250.433 206.731 250.689 207.235 250.689C207.483 250.689 207.73 250.627 207.961 250.499C208.653 250.102 208.892 249.229 208.494 248.547C206.509 245.165 204.029 244.251 201.835 243.445C199.85 242.717 198.138 242.088 196.678 239.595C195.218 237.101 195.52 235.323 195.873 233.268C196.263 230.994 196.703 228.422 194.719 225.035C192.738 221.653 190.254 220.739 188.06 219.937C186.075 219.209 184.363 218.58 182.903 216.087C181.443 213.593 181.745 211.815 182.097 209.76C182.488 207.486 182.928 204.914 180.944 201.527C178.963 198.145 176.479 197.231 174.285 196.429C172.3 195.701 170.588 195.072 169.128 192.579C167.668 190.085 167.97 188.307 168.322 186.252C168.666 184.234 169.048 181.981 167.747 179.132C170.093 177.54 172.308 175.77 174.369 173.847L194.052 193.245C193.296 194.245 192.726 195.382 192.39 196.627C191.689 199.199 192.05 201.887 193.401 204.19C194.752 206.498 196.934 208.147 199.544 208.834C200.417 209.065 201.298 209.177 202.179 209.177C203.933 209.177 205.662 208.722 207.222 207.837C207.566 207.639 207.894 207.42 208.208 207.188L216.537 215.392C216.823 215.669 217.192 215.81 217.561 215.81C217.93 215.81 218.304 215.669 218.589 215.392C219.156 214.834 219.156 213.928 218.589 213.37L210.269 205.174C211.028 204.174 211.599 203.028 211.939 201.784C212.639 199.212 212.278 196.524 210.927 194.221C209.576 191.913 207.394 190.263 204.785 189.577C202.175 188.886 199.447 189.242 197.11 190.573C196.762 190.772 196.435 190.995 196.116 191.227L176.433 171.825C179.651 168.484 182.433 164.733 184.699 160.664C186.277 161.921 186.818 163.348 187.426 164.952C188.244 167.111 189.167 169.559 192.6 171.515C196.032 173.471 198.646 173.032 200.954 172.652C203.039 172.305 204.843 172.007 207.373 173.446C209.904 174.885 210.541 176.572 211.28 178.528C212.098 180.686 213.021 183.134 216.458 185.09C219.89 187.046 222.504 186.608 224.812 186.227C226.897 185.88 228.701 185.582 231.231 187.021C233.761 188.46 234.399 190.147 235.138 192.103C235.956 194.262 236.879 196.71 240.315 198.666C243.748 200.617 246.362 200.187 248.669 199.803C250.755 199.456 252.559 199.158 255.089 200.597C255.316 200.725 255.567 200.787 255.815 200.787C256.314 200.787 256.805 200.531 257.074 200.072C257.477 199.389 257.237 198.513 256.541 198.12C253.109 196.164 250.495 196.598 248.187 196.983C246.097 197.33 244.297 197.628 241.767 196.189C239.237 194.75 238.599 193.063 237.861 191.107C237.047 188.948 236.119 186.5 232.683 184.544C229.251 182.589 226.637 183.023 224.329 183.407C222.244 183.755 220.439 184.052 217.909 182.613C215.379 181.174 214.741 179.487 214.003 177.531C213.185 175.373 212.262 172.925 208.829 170.969C205.397 169.013 202.783 169.447 200.475 169.832C198.39 170.179 196.586 170.477 194.056 169.038C191.526 167.599 190.888 165.912 190.149 163.956C189.428 162.041 188.614 159.904 186.05 158.084C187.271 155.57 188.299 152.952 189.117 150.24L215.975 157.336C215.828 158.576 215.916 159.841 216.252 161.086C216.953 163.658 218.627 165.808 220.964 167.14C222.521 168.029 224.254 168.48 226.003 168.48C226.88 168.48 227.765 168.364 228.638 168.136C231.248 167.446 233.43 165.796 234.781 163.493C234.982 163.154 235.154 162.802 235.31 162.447L246.676 165.445C246.802 165.478 246.928 165.494 247.054 165.494C247.696 165.494 248.279 165.072 248.455 164.436C248.661 163.675 248.204 162.889 247.427 162.686L236.065 159.688C236.216 158.448 236.128 157.174 235.788 155.93C235.087 153.358 233.413 151.207 231.076 149.876C228.735 148.544 226.012 148.193 223.402 148.879C220.792 149.57 218.61 151.22 217.259 153.523C217.058 153.866 216.881 154.218 216.726 154.578L189.868 147.482C190.842 143.475 191.362 139.298 191.362 135.006C191.362 134.584 191.354 134.159 191.345 133.737C193.342 134.051 194.534 135.014 195.873 136.106C197.677 137.574 199.716 139.236 203.681 139.236C207.646 139.236 209.69 137.574 211.49 136.106C213.122 134.779 214.532 133.629 217.452 133.629C220.372 133.629 221.782 134.775 223.414 136.106C225.219 137.574 227.258 139.236 231.227 139.236C235.196 139.236 237.236 137.574 239.036 136.106C240.668 134.779 242.078 133.629 244.998 133.629C247.918 133.629 249.328 134.775 250.96 136.106C252.765 137.574 254.808 139.236 258.773 139.236C262.738 139.236 264.782 137.574 266.586 136.106C268.218 134.779 269.628 133.629 272.548 133.629C273.35 133.629 274 132.988 274 132.198C274 131.409 273.35 130.768 272.548 130.768L272.51 130.764ZM225.982 104.386C229.96 104.386 233.195 107.574 233.195 111.494C233.195 115.414 229.96 118.602 225.982 118.602C222.005 118.602 218.77 115.414 218.77 111.494C218.77 107.574 222.005 104.386 225.982 104.386ZM154.585 43.7326C155.919 41.4542 158.349 40.1806 160.845 40.1806C162.066 40.1806 163.308 40.4866 164.441 41.1316C167.886 43.0917 169.069 47.45 167.08 50.8408C165.091 54.2357 160.669 55.4018 157.224 53.4418C153.779 51.4817 152.596 47.1234 154.585 43.7285V43.7326ZM105.925 47.2888C105.925 43.3687 109.16 40.1806 113.138 40.1806C117.116 40.1806 120.351 43.3687 120.351 47.2888C120.351 51.2088 117.116 54.397 113.138 54.397C109.16 54.397 105.925 51.2088 105.925 47.2888ZM44.3799 117.651C40.9351 115.691 39.7519 111.333 41.7407 107.942C43.075 105.664 45.5044 104.39 48.001 104.39C49.222 104.39 50.464 104.696 51.5969 105.341C55.0417 107.301 56.2249 111.66 54.2361 115.05C52.2472 118.445 47.8248 119.611 44.3841 117.651H44.3799ZM47.9884 165.606C44.0107 165.606 40.7757 162.418 40.7757 158.498C40.7757 154.578 44.0107 151.389 47.9884 151.389C51.9661 151.389 55.2011 154.578 55.2011 158.498C55.2011 162.418 51.9661 165.606 47.9884 165.606ZM119.386 226.259C118.421 227.905 116.868 229.079 115.005 229.571C113.142 230.063 111.199 229.811 109.53 228.86C107.86 227.909 106.668 226.379 106.169 224.543C105.669 222.707 105.925 220.793 106.89 219.147C107.855 217.501 109.408 216.327 111.271 215.835C111.892 215.669 112.521 215.591 113.151 215.591C113.78 215.591 114.384 215.669 114.98 215.826C114.988 215.826 114.993 215.83 115.001 215.835C115.009 215.835 115.018 215.835 115.03 215.839C115.622 216 116.201 216.236 116.746 216.546C120.191 218.506 121.375 222.86 119.386 226.255V226.259ZM168.045 222.703C168.045 226.623 164.81 229.811 160.833 229.811C156.855 229.811 153.62 226.623 153.62 222.703C153.62 218.783 156.855 215.595 160.833 215.595C164.81 215.595 168.045 218.783 168.045 222.703ZM219.739 154.941C220.704 153.296 222.256 152.121 224.119 151.629C224.74 151.464 225.37 151.385 225.999 151.385C227.249 151.385 228.483 151.708 229.595 152.34C231.265 153.292 232.456 154.822 232.956 156.657C233.455 158.493 233.199 160.408 232.234 162.054C231.269 163.7 229.717 164.874 227.854 165.366C225.991 165.858 224.048 165.606 222.378 164.655C220.708 163.704 219.516 162.174 219.017 160.338C218.518 158.502 218.774 156.587 219.739 154.941ZM198.533 64.6313C199.645 63.9986 200.878 63.6761 202.129 63.6761C202.754 63.6761 203.387 63.7588 204.008 63.9201C205.871 64.4121 207.424 65.5865 208.389 67.2322C209.354 68.878 209.61 70.7926 209.111 72.6285C208.611 74.4645 207.42 75.9945 205.75 76.9455C202.305 78.9056 197.887 77.7395 195.898 74.3446C193.909 70.9497 195.092 66.5955 198.537 64.6354L198.533 64.6313ZM65.5902 74.3405C63.6013 70.9455 64.7845 66.5913 68.2294 64.6313C69.3413 63.9986 70.5749 63.6761 71.8252 63.6761C72.4504 63.6761 73.084 63.7588 73.705 63.9201C75.568 64.4121 77.1205 65.5865 78.0855 67.2322C79.0506 68.878 79.3065 70.7926 78.8072 72.6285C78.3079 74.4645 77.1163 75.9945 75.4463 76.9455C72.0015 78.9056 67.579 77.7395 65.5943 74.3446L65.5902 74.3405ZM75.4421 205.356C71.9973 207.316 67.5748 206.15 65.5902 202.755C64.6251 201.11 64.3691 199.195 64.8685 197.359C65.3678 195.523 66.5594 193.993 68.2294 193.042C69.3413 192.409 70.5749 192.087 71.8252 192.087C72.4504 192.087 73.084 192.17 73.705 192.331C75.568 192.823 77.1205 193.997 78.0855 195.643C80.0744 199.038 78.8911 203.392 75.4463 205.352L75.4421 205.356ZM123.716 183.97C123.716 183.97 123.686 183.957 123.674 183.953C123.661 183.953 123.644 183.953 123.632 183.945C105.984 179.264 92.0578 165.54 87.3123 148.147C87.3123 148.135 87.3123 148.123 87.3039 148.106C87.3039 148.094 87.2913 148.081 87.2871 148.065C86.1542 143.892 85.55 139.509 85.55 134.986C85.55 130.462 86.1584 126.087 87.2871 121.915C87.2913 121.898 87.2997 121.881 87.3039 121.865C87.3039 121.853 87.3039 121.836 87.3123 121.824C92.062 104.44 105.976 90.7195 123.615 86.0345C123.636 86.0303 123.657 86.0262 123.674 86.022C123.686 86.022 123.699 86.0096 123.716 86.0055C127.949 84.889 132.397 84.2936 136.987 84.2936C141.578 84.2936 146.021 84.8932 150.259 86.0055C150.276 86.0096 150.288 86.0179 150.301 86.022C150.322 86.0262 150.343 86.0303 150.364 86.0345C167.999 90.7195 181.917 104.44 186.663 121.824C186.663 121.836 186.663 121.853 186.671 121.865C186.675 121.881 186.684 121.898 186.688 121.915C187.816 126.087 188.425 130.466 188.425 134.981C188.425 139.497 187.816 143.884 186.688 148.061C186.684 148.077 186.675 148.09 186.671 148.102C186.671 148.114 186.671 148.131 186.663 148.143C181.913 165.535 167.987 179.256 150.339 183.937C150.326 183.937 150.309 183.937 150.297 183.945C150.28 183.945 150.267 183.957 150.255 183.961C146.021 185.078 141.574 185.673 136.987 185.673C132.401 185.673 127.949 185.074 123.716 183.957V183.97ZM202.129 192.087C202.754 192.087 203.387 192.17 204.008 192.331C205.871 192.823 207.424 193.997 208.389 195.643C210.378 199.038 209.194 203.396 205.75 205.352C202.305 207.308 197.887 206.146 195.898 202.751C194.933 201.105 194.677 199.191 195.176 197.355C195.675 195.519 196.867 193.989 198.537 193.038C199.649 192.405 200.882 192.083 202.133 192.083L202.129 192.087Z" fill="#C1A78C" />
</svg>