<svg width="683" height="170" viewBox="0 0 683 170" fill="none" xmlns="http://www.w3.org/2000/svg">
<g clip-path="url(#clip0_7_2)">
<path d="M638.64 70.0637C651.005 70.0637 659.163 72.8693 663.111 78.4806C667.164 83.9879 669.19 93.6517 669.19 107.472V135.061C669.19 139.321 670.125 141.451 671.996 141.451C675.84 141.451 678.386 135.476 679.633 123.526L682.439 123.838C680.88 139.944 675.633 147.998 666.696 147.998C664.098 147.998 662.072 147.062 660.617 145.192C659.266 143.322 658.383 141.295 657.968 139.113C657.656 136.827 657.5 134.021 657.5 130.696H656.565C655.214 136.204 652.46 140.464 648.304 143.477C644.147 146.491 638.796 147.998 632.249 147.998C625.807 147.998 620.144 146.283 615.26 142.854C610.376 139.321 607.934 134.281 607.934 127.735C607.934 122.851 609.337 118.798 612.143 115.577C617.962 108.927 631.158 105.602 651.733 105.602C652.876 105.602 654.071 105.602 655.318 105.602V97.964C655.318 89.755 653.915 83.5723 651.109 79.4158C648.304 75.2593 643.42 73.1811 636.458 73.1811C629.6 73.1811 624.56 74.5839 621.339 77.3895C618.117 80.1951 616.507 83.1047 616.507 86.1181C616.507 87.0533 616.922 87.5209 617.754 87.5209C618.689 87.5209 619.209 87.0533 619.312 86.1181C619.936 83.4164 622.014 82.0655 625.547 82.0655C627.833 82.0655 629.652 82.8968 631.002 84.5594C632.353 86.1181 633.029 88.0924 633.029 90.4824C633.029 92.7684 632.146 94.7428 630.379 96.4054C628.716 97.964 626.482 98.7434 623.677 98.7434C620.975 98.7434 618.585 97.7042 616.507 95.626C614.532 93.4439 613.545 90.7941 613.545 87.6768C613.545 81.8577 615.987 77.4934 620.871 74.5839C625.755 71.5704 631.678 70.0637 638.64 70.0637ZM655.318 118.85V108.407C654.279 108.407 652.616 108.407 650.33 108.407C648.148 108.407 645.498 108.563 642.381 108.875C639.367 109.186 636.25 109.966 633.029 111.213C626.378 113.603 623.053 118.902 623.053 127.111C623.053 132.099 624.248 136.1 626.638 139.113C629.028 142.127 632.873 143.633 638.172 143.633C643.472 143.633 647.628 141.243 650.642 136.463C653.759 131.683 655.318 125.812 655.318 118.85Z" fill="white"/>
<path d="M599.176 81.9097C599.176 79.208 598.189 76.9739 596.215 75.2074C594.24 73.4409 591.591 72.5576 588.265 72.5576C584.94 72.5576 581.823 73.9085 578.913 76.6102C576.108 79.208 573.926 82.637 572.367 86.8974C569.561 95.1065 568.159 103.991 568.159 113.551V142.542H579.537V144.88H543.999V142.542H554.286V75.5191H543.22V73.1811H546.493C554.806 73.1811 562.132 72.5057 568.47 71.1548V87.365H569.406C573.77 75.8308 580.316 70.0637 589.045 70.0637C592.89 70.0637 596.007 71.3107 598.397 73.8045C600.891 76.1945 602.138 79.208 602.138 82.8449C602.138 86.3779 601.099 89.2354 599.02 91.4176C597.046 93.4958 594.656 94.5349 591.85 94.5349C589.149 94.5349 586.915 93.7556 585.148 92.1969C583.486 90.5343 582.654 88.56 582.654 86.274C582.654 83.884 583.33 81.9097 584.681 80.351C586.031 78.6884 587.85 77.8571 590.136 77.8571C593.669 77.8571 595.747 79.208 596.371 81.9097C596.578 82.8449 597.098 83.3125 597.929 83.3125C598.761 83.3125 599.176 82.8449 599.176 81.9097Z" fill="white"/>
<path d="M516.55 75.5216V128.517C516.55 137.245 517.122 142.077 518.265 143.012C518.888 143.532 519.719 143.792 520.759 143.792C523.356 143.792 525.85 142.285 528.24 139.271C530.734 136.258 532.76 132.985 534.319 129.452L536.813 130.387C534.839 135.375 532.189 139.583 528.864 143.012C525.539 146.337 521.694 148 517.329 148C511.199 148 507.198 146.182 505.328 142.545C503.561 138.804 502.678 132.985 502.678 125.088V75.5216H491.611V73.1836H492.702C504.652 73.1836 511.926 66.3254 514.524 52.6091H516.55V73.1836H535.41V75.5216H516.55Z" fill="white"/>
<path d="M435.205 142.542V144.88H400.758V142.542H411.046V75.5191H399.979V73.1811H403.252C411.461 73.1811 418.787 72.5057 425.23 71.1548V86.7416H426.165C427.931 81.7538 430.893 77.7532 435.049 74.7398C439.31 71.6224 444.038 70.0637 449.233 70.0637C458.274 70.0637 464.456 72.7654 467.781 78.1688C471.107 83.4683 472.769 91.4176 472.769 102.017V142.542H483.056V144.88H448.61V142.542H458.897V104.199C458.897 92.4567 458.014 84.7153 456.247 80.9745C455.416 79.3119 454.117 77.8051 452.351 76.4543C450.688 75.1034 448.194 74.428 444.869 74.428C441.544 74.428 438.374 75.623 435.361 78.013C432.451 80.4029 430.269 83.6762 428.815 87.8326C426.217 95.2104 424.918 104.043 424.918 114.33V142.542H435.205Z" fill="white"/>
<path d="M350.196 70.0637C362.561 70.0637 370.718 72.8693 374.667 78.4806C378.719 83.9879 380.746 93.6517 380.746 107.472V135.061C380.746 139.321 381.681 141.451 383.551 141.451C387.396 141.451 389.942 135.476 391.189 123.526L393.994 123.838C392.436 139.944 387.188 147.998 378.252 147.998C375.654 147.998 373.628 147.062 372.173 145.192C370.822 143.322 369.939 141.295 369.523 139.113C369.212 136.827 369.056 134.021 369.056 130.696H368.12C366.77 136.204 364.016 140.464 359.859 143.477C355.703 146.491 350.352 147.998 343.805 147.998C337.363 147.998 331.699 146.283 326.816 142.854C321.932 139.321 319.49 134.281 319.49 127.735C319.49 122.851 320.893 118.798 323.698 115.577C329.517 108.927 342.714 105.602 363.289 105.602C364.432 105.602 365.627 105.602 366.874 105.602V97.964C366.874 89.755 365.471 83.5723 362.665 79.4158C359.859 75.2593 354.976 73.1811 348.014 73.1811C341.155 73.1811 336.116 74.5839 332.894 77.3895C329.673 80.1951 328.062 83.1047 328.062 86.1181C328.062 87.0533 328.478 87.5209 329.309 87.5209C330.245 87.5209 330.764 87.0533 330.868 86.1181C331.492 83.4164 333.57 82.0655 337.103 82.0655C339.389 82.0655 341.207 82.8968 342.558 84.5594C343.909 86.1181 344.584 88.0924 344.584 90.4824C344.584 92.7684 343.701 94.7428 341.935 96.4054C340.272 97.964 338.038 98.7434 335.232 98.7434C332.531 98.7434 330.141 97.7042 328.062 95.626C326.088 93.4439 325.101 90.7941 325.101 87.6768C325.101 81.8577 327.543 77.4934 332.427 74.5839C337.311 71.5704 343.234 70.0637 350.196 70.0637ZM366.874 118.85V108.407C365.834 108.407 364.172 108.407 361.886 108.407C359.704 108.407 357.054 108.563 353.936 108.875C350.923 109.186 347.806 109.966 344.584 111.213C337.934 113.603 334.609 118.902 334.609 127.111C334.609 132.099 335.804 136.1 338.194 139.113C340.584 142.127 344.429 143.633 349.728 143.633C355.028 143.633 359.184 141.243 362.197 136.463C365.315 131.683 366.874 125.812 366.874 118.85Z" fill="white"/>
<path d="M306.127 43.5684V46.0622H293.19V142.388H306.127V144.882H265.601V142.388H276.979V53.2322H276.044L245.962 143.48H245.338C242.325 143.48 239.935 142.388 238.168 140.206C236.506 138.024 234.947 134.907 233.492 130.854L204.345 53.2322H203.566V122.593C203.566 130.179 204.969 135.374 207.774 138.18C210.684 140.986 215.931 142.388 223.517 142.388H224.608V144.882H180.03V142.388C187.615 142.388 192.915 140.986 195.928 138.18C198.942 135.27 200.448 130.075 200.448 122.593V52.2969C200.241 49.8031 199.253 48.1405 197.487 47.3092C195.824 46.374 193.434 45.9064 190.317 45.9064H183.303V43.5684H218.685L248.456 123.684H249.391L276.044 43.5684H306.127Z" fill="white"/>
<path d="M150.303 85.8833C150.26 84.8549 150.22 83.8266 150.177 82.7981C150.365 82.5043 150.306 82.2693 150.027 82.0832C149.919 81.28 149.809 80.4769 149.702 79.6738C149.876 79.3767 149.821 79.1416 149.539 78.9621C149.444 78.1622 149.346 77.3623 149.25 76.5657C148.974 74.424 148.701 72.2824 147.869 70.2778C147.869 70.1048 147.842 69.935 147.783 69.775C147.777 68.776 147.602 67.8325 146.979 67.0391C146.924 66.7388 146.869 66.4417 146.813 66.1413C146.795 65.8932 146.82 65.6288 146.752 65.3937C145.908 62.4162 144.785 59.5465 143.416 56.8074C142.866 55.7072 142.532 54.3849 141.439 53.6373L141.433 53.6275C141.482 53.0725 141.197 52.622 140.936 52.2041C139.908 50.5488 138.827 48.9263 137.787 47.2775C135.832 44.1793 133.57 41.352 131.001 38.812C128.739 36.5757 126.458 34.3556 124.129 32.2041C121.342 29.6282 118.058 27.8555 114.789 26.0827C113.353 25.3024 111.965 24.3524 110.317 24.0716L110.237 24.0129C110.093 23.817 109.989 23.5134 109.801 23.435C106.517 22.0769 103.221 20.771 99.7804 19.8829C94.7499 18.5836 89.6243 17.8947 84.514 17.1242C82.6509 16.8434 80.748 16.7586 78.8635 16.7357C73.6734 16.6671 68.5447 17.3495 63.4344 18.2375C63.0937 18.2963 62.8175 18.4464 62.6027 18.7272L62.5689 18.737C61.8415 18.5672 61.1724 18.6684 60.5954 19.2039H60.577C59.8526 19.07 59.2081 19.2561 58.6495 19.7654L58.6188 19.7719C56.8448 19.8764 55.1444 20.2551 53.6221 21.2803C53.4962 21.2998 53.3827 21.3488 53.2814 21.4272C52.8271 21.2933 52.4772 21.4598 52.2102 21.8516C50.4792 22.3642 48.8095 23.04 47.2227 23.928C46.4063 24.0945 45.6512 24.4046 45.0098 24.9825C44.9023 24.9303 44.8195 24.9596 44.7581 25.0674C44.3652 24.9433 44.1381 25.1359 44.0061 25.5081L43.8772 25.4918L43.8036 25.6061C43.4199 25.4918 43.1928 25.6812 43.0424 26.0337C42.9319 25.9782 42.8552 26.0109 42.8091 26.1317C42.4193 25.9978 42.1953 26.2035 42.0387 26.5496C41.9405 26.4843 41.8638 26.5071 41.8116 26.6181C37.9505 28.3093 34.5713 30.7709 31.5512 33.8006L31.4683 33.8561C29.0282 35.7366 26.9289 38.0317 24.6914 40.1506C22.1163 42.5893 20.0568 45.4983 18.2245 48.5639C16.2633 51.8482 14.3143 55.1424 12.5096 58.5344C10.6957 61.9429 9.1856 65.4688 7.9978 69.1482C7.50366 70.6826 6.88674 72.2138 6.85298 73.8854L6.84377 73.9311C6.59516 74.2184 6.36804 74.5154 6.50308 74.9464C6.39259 75.0182 6.36804 75.1162 6.42942 75.237C4.13363 80.6369 2.98574 86.3502 2.30129 92.1843C1.81635 96.3143 1.97289 100.444 2.37496 104.584C2.81386 109.079 3.78681 113.409 5.43806 117.571C5.79716 119.677 6.66268 121.544 7.85355 123.255L7.87197 123.307C8.08988 124.904 8.84798 126.21 9.83628 127.395C9.91915 127.594 9.99895 127.793 10.0818 127.992C9.99281 128.253 10.088 128.374 10.3427 128.368L10.3826 128.495C10.2905 129.073 10.6558 129.471 10.9167 129.889C14.2683 135.243 18.1079 140.173 22.5092 144.607C22.7977 144.897 23.0739 145.24 23.522 145.273C23.5834 145.416 23.6755 145.534 23.7952 145.628C24.6147 146.993 25.695 148.074 27.0025 148.91C27.5243 149.993 28.5679 150.392 29.4671 150.976C29.5531 151.59 29.9644 151.851 30.4739 151.998C30.6181 152.204 30.7286 152.455 30.9158 152.609C33.1748 154.479 35.535 156.213 38.0457 157.672C41.5569 159.713 45.1418 161.613 48.92 163.059C51.3017 163.97 53.6589 165.002 56.0959 165.71C59.561 166.716 63.0876 167.502 66.5957 168.335C70.6103 169.288 74.6893 169.863 78.796 169.722C83.7712 169.556 88.771 169.386 93.6112 167.904C93.9212 167.809 94.2588 167.803 94.5841 167.777C97.1377 167.571 99.4949 166.543 101.907 165.779C103.393 165.308 104.82 164.61 106.247 163.954C107.061 163.581 107.981 163.359 108.528 162.504C112.355 160.859 115.547 158.113 118.88 155.645C119.976 154.835 121.204 153.993 121.848 152.612C122.032 152.458 122.217 152.302 122.401 152.148C122.327 152.07 122.25 151.988 122.177 151.907C122.25 151.988 122.324 152.067 122.401 152.148C124.264 150.865 128.192 146.699 129.54 144.574C129.798 144.509 129.957 144.339 130.025 144.068C130.669 143.601 131.028 142.938 131.216 142.158C131.513 141.796 131.811 141.43 132.109 141.068C132.867 140.767 133.189 140.118 133.355 139.344C133.465 139.246 133.542 139.122 133.582 138.975C134.22 138.854 134.331 138.364 134.319 137.793C134.404 137.751 134.466 137.682 134.5 137.587C134.644 137.738 134.76 137.715 134.813 137.509C134.825 137.463 134.745 137.388 134.705 137.329C134.816 137.173 134.923 137.013 135.034 136.856C135.611 136.732 135.884 136.357 135.859 135.736L135.967 135.553C136.114 135.645 136.218 135.606 136.243 135.426C136.249 135.387 136.166 135.331 136.123 135.282C136.206 135.109 136.286 134.94 136.369 134.767C139.137 130.953 141.151 126.699 142.915 122.302L142.94 122.24C144.251 119.981 145.144 117.542 145.758 114.982C145.834 114.685 145.911 114.388 145.988 114.091C145.988 113.849 145.994 113.611 146.015 113.373C145.994 113.608 145.985 113.849 145.988 114.091C147.01 112.282 147.455 110.271 147.811 108.231C147.931 108.103 147.971 107.956 147.924 107.783C148.149 107.65 148.265 107.476 148.099 107.209C148.161 106.856 148.222 106.504 148.287 106.148C148.581 105.661 148.848 105.168 148.673 104.558C148.719 104.222 148.765 103.885 148.808 103.549C149.1 103.056 149.309 102.54 149.112 101.943C149.18 101.437 149.247 100.934 149.315 100.428C149.671 99.9806 149.695 99.4386 149.708 98.8934C150.008 97.3329 150.272 95.769 150.156 94.1628C150.015 94.2868 149.913 94.4272 149.843 94.5807C149.913 94.4305 150.015 94.2901 150.156 94.1628C150.205 92.9483 150.257 91.7305 150.306 90.516C150.14 89.7423 150.033 88.9685 150.021 88.1981C150.033 88.9718 150.14 89.7456 150.306 90.516C150.767 88.9686 150.675 87.4243 150.303 85.8768V85.8833ZM105.971 28.3648C104.786 28.1199 103.605 27.924 102.475 27.4213C102.294 27.3397 102.11 27.258 101.923 27.1829C101.702 27.0948 101.478 27.0262 101.247 26.974C101.069 26.9316 100.885 26.9054 100.701 26.8989C100.517 26.8924 100.327 26.912 100.133 26.9609C99.2524 26.7487 98.3685 26.543 97.4846 26.3341C96.0789 26.0044 94.6762 25.6681 93.2828 25.2926C92.5523 25.0968 91.8188 24.927 91.0791 24.7768C88.8661 24.3295 86.6287 24.0618 84.4004 23.7288C84.293 23.5231 84.1886 23.3175 84.0045 22.9616C87.7428 22.782 91.4259 22.6841 95.0169 23.9704C95.0875 24.101 95.1704 24.199 95.2747 24.2479C95.3269 24.274 95.3821 24.2871 95.4435 24.2871C95.5049 24.2871 95.5724 24.274 95.643 24.2479C95.9438 24.3655 96.2477 24.4503 96.5577 24.4928C96.8677 24.5352 97.1807 24.5352 97.503 24.4863C98.1966 24.9564 98.9026 25.3775 99.7006 25.482C99.9676 25.5179 100.244 25.5146 100.532 25.4689C100.588 25.5179 100.646 25.5506 100.707 25.5669C100.769 25.5832 100.836 25.5865 100.907 25.5734C101.119 25.8444 101.358 26.0109 101.625 26.0892C101.757 26.1284 101.895 26.1447 102.039 26.1382C102.184 26.1317 102.334 26.1056 102.491 26.0566C102.669 26.135 102.843 26.2296 103.021 26.3178C103.199 26.4027 103.378 26.481 103.568 26.5235C103.694 26.5528 103.826 26.5659 103.964 26.5561C104.12 26.7161 104.243 26.9413 104.403 27.1013C104.562 27.2613 104.759 27.356 105.063 27.2613C105.366 27.3364 105.67 27.4115 105.974 27.4866C105.95 27.7804 106.296 28.0807 105.968 28.3713L105.971 28.3648ZM39.5834 50.4574C39.8289 49.9057 40.0775 49.3539 40.323 48.7989C40.719 48.8218 40.9676 49.0405 41.075 49.4388C40.8356 49.7816 40.5931 50.1277 40.3537 50.4705C40.0959 50.464 39.8412 50.4607 39.5834 50.4542V50.4574ZM32.6346 140.833C32.7205 140.911 32.8126 140.983 32.9016 141.058C33.1011 141.231 33.2976 141.404 33.5093 141.561C33.4572 141.988 33.2085 142.253 32.8648 142.445C32.7574 142.308 32.6499 142.174 32.5425 142.037C32.3737 141.427 31.9072 141.254 31.3854 141.162C31.103 140.95 30.8207 140.735 30.5383 140.522C30.3327 140.095 29.9828 139.945 29.5561 139.951C29.4794 139.327 29.1418 138.981 28.5525 138.91C26.8337 136.85 25.118 134.789 23.3962 132.733C22.6442 131.835 21.969 130.875 21.3337 129.886C21.0574 129.455 20.7689 129.034 20.5172 128.583C20.5449 128.276 20.4098 128.113 20.1213 128.09C19.9402 127.731 19.7591 127.375 19.575 127.016C19.7469 126.797 19.9525 126.742 20.1765 126.912C20.9623 127.499 21.481 128.345 22.0733 129.119C22.3619 129.501 22.5767 129.98 23.1384 129.984C23.1844 130.046 23.2366 130.091 23.2949 130.127C23.3532 130.163 23.4207 130.18 23.4944 130.186C23.5589 130.48 23.7215 130.673 24.0039 130.748C24.0039 130.823 24.0223 130.891 24.0499 130.953C24.0776 131.015 24.1175 131.071 24.1696 131.12C24.1082 131.881 24.4213 132.4 25.0751 132.7C25.5907 133.213 26.1063 133.725 26.625 134.238C26.7294 134.917 27.245 135.204 27.7269 135.521C27.7269 135.521 27.8466 135.635 27.8466 135.632C28.5771 136.725 29.4794 137.633 30.526 138.384C30.7439 138.681 30.9649 138.975 31.1921 139.259C31.6371 139.817 32.1128 140.346 32.6315 140.826L32.6346 140.833ZM22.282 138.191C21.9199 137.78 21.57 137.359 21.2262 136.931C20.8825 136.503 20.5387 136.073 20.1919 135.648C20.0937 135.511 19.9924 135.374 19.8942 135.24C19.6179 134.776 19.3386 134.316 19.0624 133.852C19.0686 133.533 18.9212 133.353 18.6204 133.311L18.5959 133.281C18.6389 133.118 18.6358 132.955 18.5898 132.791C18.4486 132.742 18.3012 132.726 18.1509 132.742C17.893 132.223 17.6352 131.704 17.3805 131.185C18.2613 131.166 18.7187 131.672 18.8875 132.534C19.4399 132.788 19.9893 133.04 20.5418 133.294L20.5786 133.337C20.7045 134.43 21.0697 135.364 22.0887 135.86L22.0948 135.873C22.058 136.18 22.193 136.357 22.4662 136.432C23.1261 137.058 23.8873 137.6 24.4274 138.328C26.2905 140.829 28.752 142.671 30.8299 144.93C30.9097 145.018 31.014 145.08 31.1276 145.132C31.2381 145.188 31.3578 145.233 31.4652 145.295C31.5573 145.557 31.7169 145.71 32.0023 145.664L32.0545 145.697C32.2049 145.762 32.3706 145.808 32.5241 145.864C32.6806 145.919 32.828 145.988 32.9384 146.095C34.9488 148.041 37.3551 149.344 39.6908 150.757C40.6791 151.355 41.7871 151.734 42.6035 152.644C42.8122 152.876 43.1866 153.102 43.4659 153.075C44.8563 152.951 45.7433 153.908 46.7408 154.646C47.0754 154.894 47.4161 155.132 47.7537 155.374C48.168 155.932 48.7205 156.164 49.3804 156.187C49.9236 156.206 50.4699 156.255 51.0132 156.291L51.1176 156.402C52.0199 157.538 53.3335 157.852 54.5797 158.139C57.2069 158.743 59.7943 159.478 62.3755 160.268C63.9316 160.744 65.543 161.045 67.1451 161.303C68.1917 161.469 69.223 161.645 70.2021 162.053C70.2635 162.151 70.2972 162.24 70.3064 162.321C70.3157 162.383 70.3095 162.439 70.2972 162.494C70.2573 162.657 70.1284 162.795 69.9842 162.925L69.9412 162.912C69.8369 162.782 69.7233 162.687 69.6067 162.618C69.2537 162.413 68.8516 162.452 68.4311 162.579C68.1273 162.573 67.8204 162.563 67.5165 162.556C67.1697 162.533 66.8229 162.511 66.476 162.484C64.5025 162.116 62.529 161.743 60.5555 161.374C60.2424 161.293 59.9355 161.182 59.6286 161.068C58.7078 160.728 57.7901 160.362 56.7619 160.705C55.3899 160.193 54.0364 159.611 52.6399 159.187C50.9242 158.665 49.4111 157.515 47.5634 157.395C47.2841 157.375 47.0293 157.042 46.75 156.879C46.1055 156.5 45.4855 156.043 44.8011 155.788C42.2475 154.835 40.0008 153.258 37.6283 151.946C36.7627 151.466 35.9033 150.992 35.1606 150.271C34.5713 149.696 33.8623 149.135 33.1103 148.893C32.8587 148.812 32.6407 148.707 32.4535 148.583C32.0054 148.286 31.7322 147.858 31.5327 147.342C31.4806 147.209 31.4253 147.081 31.3854 146.934C31.235 146.879 31.1 146.804 30.9711 146.719C30.8422 146.634 30.7255 146.536 30.612 146.432C30.4984 146.327 30.391 146.216 30.2866 146.099C30.1823 145.984 30.081 145.864 29.9766 145.746C29.817 145.295 29.4641 145.207 29.0651 145.204C28.706 144.874 28.3438 144.548 27.9847 144.218C27.4721 143.389 26.8092 142.713 26.0541 142.135L26.0204 142.096C25.9651 141.773 25.7718 141.655 25.4802 141.685C24.0407 140.904 23.3225 139.386 22.2759 138.201L22.282 138.191Z" fill="#A68767"/>
<path d="M88.1755 56.0575C88.1755 62.5021 83.2647 67.7257 77.206 67.7257C71.1474 67.7257 66.2366 62.5021 66.2366 56.0575C66.2366 49.6128 71.1474 44.3892 77.206 44.3892C83.2647 44.3892 88.1755 49.6128 88.1755 56.0575Z" stroke="#3C3C3B" stroke-width="3" stroke-linecap="round" stroke-linejoin="round"/>
<path d="M25.4644 142.335C37.3423 125.509 65.6469 139.217 79.5628 146.109C94.2153 153.367 110.998 164.496 127.673 163.08C140.96 161.95 152.104 151.973 152.104 136.984C152.104 122.57 141.119 110.886 127.569 110.886C114.018 110.886 77.1903 136.984 77.1903 136.984" stroke="#3C3C3B" stroke-width="3" stroke-linecap="round" stroke-linejoin="round"/>
<path d="M128.94 131.611C117.062 148.438 88.7577 134.729 74.8418 127.837C60.1892 120.579 43.4066 109.45 26.7314 110.867C13.4447 111.996 2.30029 121.974 2.30029 136.962C2.30029 151.376 13.2851 163.061 26.8358 163.061C40.3865 163.061 77.2143 136.962 77.2143 136.962" stroke="#3C3C3B" stroke-width="3" stroke-linecap="round" stroke-linejoin="round"/>
<path d="M77.1965 2C71.7762 26.0646 23.0398 50.387 68.2558 83.2175C82.3743 92.9399 103.788 104.386 104.046 120.028" stroke="#3C3C3B" stroke-width="3" stroke-linecap="round" stroke-linejoin="round"/>
<path d="M77.2119 2C82.6321 26.0645 131.369 50.387 86.1526 83.2174C73.36 92.0258 54.5701 102.254 50.9668 115.738" stroke="#3C3C3B" stroke-width="3" stroke-linecap="round" stroke-linejoin="round"/>
</g>
<defs>
<clipPath id="clip0_7_2">
<rect width="683" height="170" fill="white"/>
</clipPath>
</defs>
</svg>
