<svg width="231" height="205" viewBox="0 0 231 205" fill="none" xmlns="http://www.w3.org/2000/svg">
<path d="M178.358 112.016C177.167 112.518 175.588 113.163 173.665 113.897C169.019 115.672 162.373 117.974 154.378 120.08C138.38 124.293 117.008 127.713 95.4507 124.579C73.7975 121.431 58.5025 118.518 44.461 110.486C30.5244 102.514 17.776 89.4717 1.31519 66.0221C28.9065 54.8361 48.8747 55.8857 64.9169 62.0176C78.1885 67.0904 88.7947 75.6413 98.8624 83.758C101.079 85.545 103.269 87.3109 105.456 89.014C120.765 102.724 139.71 108.422 154.8 110.697C162.351 111.836 168.947 112.119 173.657 112.118C175.548 112.118 177.135 112.071 178.358 112.016Z" stroke="#C1A78C"/>
<path d="M189.755 99.8008C188.657 99.9166 187.138 100.058 185.288 100.185C181.273 100.459 175.699 100.661 169.46 100.373C156.96 99.7953 141.885 97.2546 131.308 89.4768C129.832 88.3912 128.456 87.3827 127.173 86.4416C119.13 80.5452 114.696 77.2944 111.719 74.3026C108.304 70.8713 106.819 67.792 104.005 61.3068C102.574 57.9851 100.506 55.4081 98.1643 52.9348C97.2517 51.9708 96.3091 51.0331 95.3464 50.0755C93.8129 48.5499 92.2283 46.9736 90.6323 45.1588C85.5536 39.3839 80.5585 31.3876 78.1711 16.1654C104.494 11.35 122.545 20.1487 134.566 31.2937C146.174 42.0548 152.172 55.0134 154.528 60.1043C154.631 60.3269 154.727 60.5344 154.816 60.726C155.464 62.1172 156.065 63.7281 156.737 65.5281C157.164 66.6701 157.619 67.8883 158.132 69.1748C159.442 72.4596 161.105 76.1098 163.576 79.8264C168.313 86.9533 175.99 94.2814 189.755 99.8008Z" stroke="#C1A78C"/>
<path d="M215.442 102.506C215.052 103.18 214.534 104.078 213.919 105.15C212.494 107.635 210.547 111.058 208.456 114.811C204.279 122.31 199.516 131.153 197.216 136.461C194.956 141.678 191.718 145.937 188.539 150.103L188.465 150.201C185.323 154.318 182.236 158.363 180.332 163.106C176.618 172.359 168.914 181.62 147.926 189.761C137.356 193.862 130.786 197.572 126.848 200.268C124.879 201.616 123.568 202.711 122.745 203.475C122.601 203.609 122.473 203.732 122.358 203.845C122.348 203.731 122.338 203.609 122.328 203.479C122.253 202.533 122.162 201.166 122.099 199.485C121.975 196.123 121.965 191.509 122.423 186.501C123.343 176.443 126.137 164.96 133.503 158.714C139.828 153.35 144.489 148.036 148.802 143.12C149.646 142.157 150.477 141.209 151.305 140.28C156.364 134.597 161.3 129.571 168.409 125.684C175.568 121.782 187.684 115.819 198.02 110.826C203.186 108.331 207.904 106.08 211.33 104.453C213.044 103.639 214.434 102.982 215.396 102.527C215.411 102.52 215.427 102.513 215.442 102.506Z" stroke="#C1A78C"/>
</svg>
