<svg width="302" height="269" viewBox="0 0 302 269" fill="none" xmlns="http://www.w3.org/2000/svg">
<path d="M243.596 123.585C261.9 134.055 278.629 151.191 300.235 181.993C263.994 196.725 237.763 195.365 216.687 187.309C199.29 180.659 185.383 169.447 172.204 158.822C169.303 156.483 166.437 154.172 163.577 151.945C143.569 134.023 118.8 126.572 99.0616 123.595C89.1867 122.106 80.5602 121.736 74.4012 121.737C71.4563 121.738 69.0748 121.824 67.3897 121.913C69.0121 121.218 71.3607 120.246 74.336 119.109C80.4211 116.785 89.1258 113.77 99.5985 111.012C120.55 105.494 148.548 101.012 176.796 105.119C205.139 109.239 225.187 113.056 243.596 123.585Z" stroke="#C1A78C"/>
<path d="M52.6922 137.619C52.779 137.61 52.8685 137.6 52.9605 137.59C54.4196 137.432 56.537 137.229 59.1661 137.049C64.425 136.691 71.7275 136.426 79.9016 136.803C96.2726 137.559 116.044 140.886 129.927 151.096C131.86 152.517 133.661 153.837 135.341 155.069C145.866 162.785 151.682 167.049 155.588 170.974C160.081 175.489 162.034 179.544 165.718 188.034C167.58 192.358 170.274 195.716 173.334 198.947C174.521 200.202 175.753 201.427 177.012 202.68C179.023 204.681 181.106 206.753 183.197 209.13C189.88 216.73 196.448 227.258 199.568 247.31C164.977 253.683 141.256 242.134 125.466 227.495C110.248 213.388 102.387 196.401 99.3018 189.735C99.1668 189.443 99.0409 189.171 98.9239 188.92C98.0738 187.095 97.2825 184.976 96.4006 182.614C95.8426 181.12 95.2483 179.528 94.58 177.853C92.867 173.558 90.6946 168.791 87.469 163.938C81.2202 154.537 71.048 144.859 52.6922 137.619Z" stroke="#C1A78C"/>
<path d="M19.3233 134.516C19.3293 134.506 19.3354 134.495 19.3415 134.485C19.8699 133.572 20.6314 132.253 21.5638 130.627C23.4287 127.375 25.9776 122.895 28.714 117.983C34.1822 108.166 40.4136 96.5958 43.4202 89.6566C46.3875 82.8081 50.6372 77.2186 54.7977 71.7662L54.8891 71.6465C59.0061 66.2514 63.0356 60.9709 65.5199 54.7818C70.4016 42.6197 80.5254 30.4721 108.027 19.8034C121.854 14.4396 130.444 9.58838 135.587 6.06675C138.159 4.30581 139.868 2.87704 140.94 1.88253C141.232 1.6119 141.476 1.37343 141.678 1.16919C141.698 1.40458 141.721 1.67518 141.745 1.9789C141.844 3.21869 141.963 5.01017 142.045 7.21281C142.208 11.6191 142.221 17.6657 141.62 24.2299C140.416 37.399 136.755 52.4872 127.062 60.7069C118.792 67.7199 112.699 74.6663 107.055 81.1016C105.949 82.3625 104.86 83.6038 103.775 84.822C97.1504 92.2641 90.6749 98.8595 81.3454 103.961C71.9706 109.07 56.1068 116.878 42.5776 123.413C35.8148 126.679 29.6385 129.626 25.1528 131.756C22.91 132.821 21.0899 133.682 19.8306 134.277C19.6498 134.362 19.4806 134.442 19.3233 134.516Z" stroke="#C1A78C"/>
</svg>
