<svg width="42" height="42" viewBox="0 0 42 42" fill="none" xmlns="http://www.w3.org/2000/svg">
<g clip-path="url(#clip0_61_187)">
<path d="M21 42C32.598 42 42 32.598 42 21C42 9.40202 32.598 0 21 0C9.40202 0 0 9.40202 0 21C0 32.598 9.40202 42 21 42Z" fill="#C1A78C"/>
<path d="M15.5544 29.588V30.9324" stroke="white" stroke-miterlimit="10" stroke-linecap="round" stroke-linejoin="round"/>
<path d="M26.9876 23.0056C26.5429 21.8886 25.5248 20.7715 24.2259 20.7474L22.7514 20.7234L21.2886 23.1378L21.2184 22.9216V22.8855L21.1482 23.1017L19.6854 20.6874L18.2109 20.7114C16.7364 20.7354 16.3385 21.4922 15.4023 22.9576" stroke="white" stroke-miterlimit="10" stroke-linecap="round" stroke-linejoin="round"/>
<path d="M26.9055 30.9694V29.552" stroke="white" stroke-miterlimit="10" stroke-linecap="round" stroke-linejoin="round"/>
<path d="M21.2301 19.1139C22.8333 19.1139 24.144 17.6124 24.144 15.7746C24.144 13.9248 22.8451 12.9398 21.2418 12.9398C19.6386 12.9398 18.3397 13.9248 18.3397 15.7746C18.3163 17.6124 19.6269 19.1139 21.2301 19.1139Z" stroke="white" stroke-miterlimit="10" stroke-linecap="round" stroke-linejoin="round"/>
<path d="M15.8704 22.1768L12.7576 27.546C12.3948 27.9784 12.4416 28.6391 12.8629 29.0115C12.8746 29.0235 12.898 29.0355 12.9097 29.0475C13.0969 29.2637 13.3661 29.4078 13.6703 29.4078H18.2342C18.7959 29.4078 19.2523 28.9394 19.2523 28.3628C19.2523 27.7863 18.7959 27.3178 18.2342 27.3178H15.6363L17.3332 24.2548" stroke="white" stroke-miterlimit="10" stroke-linecap="round" stroke-linejoin="round"/>
<path d="M26.4843 22.1528L29.5971 27.5221C29.9598 27.9545 29.913 28.6152 29.4918 28.9875C29.4801 28.9995 29.4566 29.0116 29.4449 29.0236C29.2577 29.2398 28.9886 29.3839 28.6843 29.3839H24.1204C23.5587 29.3839 23.1023 28.9155 23.1023 28.3389C23.1023 27.7623 23.5587 27.2939 24.1204 27.2939H26.7183L25.0215 24.2309" stroke="white" stroke-miterlimit="10" stroke-linecap="round" stroke-linejoin="round"/>
<path d="M28.7663 36.9873H13.565C11.7863 36.9873 12.7458 35.0895 15.6948 34.7531C18.6438 34.4168 28.7663 31.9424 28.7663 31.9424C30.5451 31.9424 31.9961 33.0715 31.9961 34.4649C31.9844 35.8582 30.5334 36.9873 28.7663 36.9873Z" stroke="white" stroke-miterlimit="10" stroke-linecap="round" stroke-linejoin="round"/>
<path d="M16.7598 32.627L12.8863 32.0385C11.1076 32.0385 9.65649 33.1676 9.65649 34.5609C9.65649 35.9423 11.1076 37.0834 12.8863 37.0834H16.397" stroke="white" stroke-miterlimit="10" stroke-linecap="round" stroke-linejoin="round"/>
<path d="M7 19.8225H9.77345" stroke="white" stroke-miterlimit="10" stroke-linecap="round" stroke-linejoin="round"/>
<path d="M33.1196 19.8225H35.8931" stroke="white" stroke-miterlimit="10" stroke-linecap="round" stroke-linejoin="round"/>
<path d="M21.4756 5V7.84679" stroke="white" stroke-miterlimit="10" stroke-linecap="round" stroke-linejoin="round"/>
<path d="M8.6853 12.8196L11.2832 13.9479" stroke="white" stroke-miterlimit="10" stroke-linecap="round" stroke-linejoin="round"/>
<path d="M15.3437 9.62446L13.5884 7.05396" stroke="white" stroke-miterlimit="10" stroke-linecap="round" stroke-linejoin="round"/>
<path d="M28.8832 6.80176L27.2683 9.44435" stroke="white" stroke-miterlimit="10" stroke-linecap="round" stroke-linejoin="round"/>
<path d="M31.4578 13.6356L33.9621 12.3752" stroke="white" stroke-miterlimit="10" stroke-linecap="round" stroke-linejoin="round"/>
</g>
<defs>
<clipPath id="clip0_61_187">
<rect width="42" height="42" fill="white"/>
</clipPath>
</defs>
</svg>
