<svg width="354" height="399" viewBox="0 0 354 399" fill="none" xmlns="http://www.w3.org/2000/svg">
<path d="M161.748 312.827C161.748 312.827 127.15 239.473 138.019 164.703C148.888 89.933 158.205 58.4465 240.382 0.942982C280.022 97.6154 233.435 140.941 200.951 182.659C153.88 235.191 161.748 312.827 161.748 312.827Z" fill="#C1A78C"/>
<path d="M181.211 331.227C181.211 331.227 171.617 263.191 198.793 226.235C225.969 189.28 225.391 188.525 247.791 178.807C270.201 169.153 272.803 142.198 326.781 134.007C344.196 226.416 265.295 260.768 249.501 268.124C233.707 275.479 200.405 279.901 181.211 331.227Z" fill="#C1A78C"/>
<path d="M0 210.613C0 210.613 58.5351 203.974 80.5872 229.979C102.639 255.984 124.151 265.579 137.723 290.399C151.221 315.166 178.951 374.167 178.951 374.167C178.951 374.167 136.25 349.253 118.012 341.351C99.774 333.449 88.277 318.729 72.0221 312.205C55.7671 305.68 39.6317 292.159 25.5096 255.756C11.3875 219.352 0 210.613 0 210.613Z" fill="#C1A78C"/>
</svg>
