<svg width="558" height="627" viewBox="0 0 558 627" fill="none" xmlns="http://www.w3.org/2000/svg">
<path d="M256.354 120.517C278.232 82.2683 314.061 47.357 378.443 2.25384C409.373 77.9974 406.592 132.832 389.749 176.896C375.897 213.138 352.532 242.116 330.448 269.506C325.588 275.533 320.791 281.484 316.17 287.418C279.014 328.891 263.553 380.255 257.376 421.221C254.286 441.71 253.517 459.609 253.521 472.387C253.522 478.777 253.717 483.886 253.912 487.4C253.966 488.384 254.02 489.242 254.071 489.969C253.754 489.252 253.378 488.393 252.949 487.397C251.495 484.013 249.436 479.045 247.017 472.715C242.18 460.055 235.908 441.948 230.171 420.162C218.695 376.586 209.365 318.324 217.913 259.524C226.475 200.629 234.416 158.871 256.354 120.517Z" stroke="#27282C"/>
<path d="M285.7 519.723C285.612 519.001 285.507 518.089 285.389 517.001C285.06 513.963 284.637 509.555 284.264 504.084C283.517 493.141 282.966 477.944 283.752 460.932C285.324 426.886 292.243 385.663 313.557 356.679C316.509 352.664 319.253 348.922 321.815 345.427C337.84 323.568 346.731 311.441 354.92 303.291C364.381 293.877 372.895 289.783 390.537 282.13C399.44 278.294 406.365 272.744 413.061 266.405C415.643 263.961 418.18 261.411 420.781 258.797C424.953 254.605 429.289 250.247 434.237 245.895C450.172 231.882 472.259 218.133 514.368 211.666C527.857 284.017 503.745 333.637 473.152 366.637C443.761 398.34 408.379 414.715 394.519 421.129C393.911 421.41 393.344 421.672 392.822 421.916C389.013 423.689 384.572 425.348 379.645 427.188C376.543 428.347 373.247 429.578 369.795 430.955C360.888 434.507 351.019 439.006 340.977 445.68C321.194 458.83 300.787 480.395 285.7 519.723Z" stroke="#27282C"/>
<path d="M280.762 588.178C280.334 587.93 279.811 587.627 279.202 587.274C277.306 586.176 274.565 584.594 271.187 582.657C264.431 578.782 255.123 573.486 244.917 567.801C224.513 556.436 200.492 543.5 186.101 537.264C171.8 531.068 160.135 522.196 148.81 513.554L148.589 513.386C137.358 504.815 126.434 496.48 113.641 491.345C88.1947 481.131 62.8606 459.957 40.6508 402.705C29.5164 374.003 19.4533 356.19 12.1625 345.543C8.51698 340.219 5.56426 336.687 3.51696 334.481C2.52372 333.411 1.74361 332.653 1.2009 332.154C1.87838 332.088 2.84499 332 4.0696 331.903C6.65264 331.698 10.3831 331.45 14.9689 331.28C24.1416 330.94 36.731 330.913 50.4012 332.164C77.7822 334.668 109.335 342.285 126.566 362.604C141.112 379.757 155.514 392.39 168.886 404.12C171.508 406.42 174.09 408.685 176.627 410.943C192.103 424.72 205.866 438.227 216.513 457.698C227.138 477.193 243.369 510.172 256.948 538.286C263.737 552.341 269.861 565.177 274.288 574.5C276.502 579.161 278.291 582.943 279.527 585.561C280.035 586.637 280.45 587.516 280.762 588.178Z" stroke="#27282C"/>
</svg>
