<svg width="303" height="269" viewBox="0 0 303 269" fill="none" xmlns="http://www.w3.org/2000/svg">
<path d="M244.182 124.059C262.486 134.528 279.216 151.664 300.822 182.467C264.581 197.199 238.349 195.838 217.273 187.783C199.876 181.133 185.97 169.921 172.79 159.295C169.889 156.956 167.023 154.646 164.163 152.418C144.155 134.496 119.386 127.045 99.6479 124.069C89.773 122.58 81.1466 122.209 74.9876 122.211C72.0427 122.212 69.6612 122.297 67.9761 122.387C69.5985 121.691 71.9471 120.72 74.9224 119.583C81.0075 117.258 89.7121 114.243 100.185 111.485C121.136 105.967 149.135 101.486 177.382 105.592C205.725 109.712 225.774 113.529 244.182 124.059Z" stroke="#C1A78C"/>
<path d="M53.2787 138.093C53.3654 138.083 53.4549 138.073 53.547 138.063C55.0061 137.905 57.1235 137.702 59.7525 137.523C65.0114 137.164 72.3139 136.899 80.488 137.277C96.859 138.033 116.631 141.36 130.514 151.569C132.446 152.99 134.247 154.31 135.928 155.542C146.452 163.258 152.268 167.522 156.175 171.448C160.667 175.962 162.621 180.018 166.304 188.508C168.167 192.832 170.861 196.189 173.92 199.421C175.108 200.676 176.339 201.901 177.598 203.153C179.609 205.154 181.692 207.226 183.783 209.604C190.467 217.204 197.034 227.731 200.155 247.783C165.564 254.157 141.842 242.607 126.052 227.969C110.835 213.861 102.973 196.875 99.8882 190.209C99.7532 189.917 99.6273 189.645 99.5104 189.394C98.6602 187.568 97.8689 185.449 96.987 183.087C96.429 181.593 95.8348 180.002 95.1664 178.326C93.4534 174.032 91.281 169.264 88.0554 164.411C81.8066 155.01 71.6344 145.332 53.2787 138.093Z" stroke="#C1A78C"/>
<path d="M19.9096 134.99C19.9156 134.979 19.9217 134.969 19.9278 134.958C20.4562 134.046 21.2177 132.727 22.1501 131.101C24.015 127.849 26.5639 123.369 29.3003 118.456C34.7685 108.639 40.9999 97.0693 44.0065 90.1301C46.9738 83.2816 51.2235 77.6921 55.384 72.2398L55.4754 72.12C59.5924 66.7249 63.6219 61.4444 66.1062 55.2553C70.9879 43.0933 81.1118 30.9456 108.613 20.2769C122.44 14.9131 131.031 10.0619 136.173 6.54026C138.745 4.77933 140.455 3.35055 141.526 2.35604C141.818 2.08541 142.062 1.84694 142.264 1.6427C142.285 1.87809 142.308 2.14869 142.332 2.45241C142.43 3.6922 142.55 5.48368 142.631 7.68632C142.794 12.0926 142.807 18.1392 142.207 24.7035C141.002 37.8725 137.342 52.9607 127.649 61.1804C119.379 68.1934 113.286 75.1398 107.641 81.5752C106.535 82.836 105.446 84.0773 104.362 85.2956C97.7367 92.7376 91.2612 99.333 81.9317 104.434C72.5569 109.544 56.6931 117.352 43.1639 123.886C36.4011 127.153 30.2248 130.099 25.7391 132.23C23.4963 133.295 21.6762 134.156 20.4169 134.75C20.2361 134.836 20.0669 134.915 19.9096 134.99Z" stroke="#C1A78C"/>
</svg>
