<svg width="63" height="63" viewBox="0 0 63 63" fill="none" xmlns="http://www.w3.org/2000/svg">
<g clip-path="url(#clip0_58_170)">
<path d="M31.5 62.5C14.3792 62.5 0.5 48.6208 0.5 31.5C0.5 14.3792 14.3792 0.5 31.5 0.5C48.6208 0.5 62.5 14.3792 62.5 31.5C62.5 48.6208 48.6208 62.5 31.5 62.5Z" stroke="#27282C"/>
<path fill-rule="evenodd" clip-rule="evenodd" d="M36.3431 24.2929L42.7071 30.6569C43.0976 31.0474 43.0976 31.6805 42.7071 32.0711L36.3431 38.435C35.9526 38.8256 35.3195 38.8256 34.9289 38.435C34.5384 38.0445 34.5384 37.4113 34.9289 37.0208L39.5858 32.364H20V30.364H39.5858L34.9289 25.7071C34.5384 25.3166 34.5384 24.6834 34.9289 24.2929C35.3195 23.9024 35.9526 23.9024 36.3431 24.2929Z" fill="#C1A78C"/>
</g>
<defs>
<clipPath id="clip0_58_170">
<rect width="63" height="63" fill="white"/>
</clipPath>
</defs>
</svg>
