<svg width="42" height="42" viewBox="0 0 42 42" fill="none" xmlns="http://www.w3.org/2000/svg">
<g clip-path="url(#clip0_61_178)">
<path d="M21 42C32.598 42 42 32.598 42 21C42 9.40202 32.598 0 21 0C9.40202 0 0 9.40202 0 21C0 32.598 9.40202 42 21 42Z" fill="#C1A78C"/>
<path d="M25.8399 22.9471C27.7517 22.9471 29.419 22.8563 29.419 21.0744C29.419 19.9054 28.6965 17.8058 27.6628 16.5006C27.9185 16.024 28.063 15.4906 28.063 14.9231C28.063 13.4023 27.0292 12.0971 25.5842 11.6091C25.5842 11.541 25.5953 11.4615 25.5953 11.3934C25.5953 9.52081 24.1614 8 22.3941 8C21.805 8 21.2603 8.17024 20.7935 8.45397C20.3266 8.17024 19.7708 8 19.1928 8C17.4255 8 15.9916 9.52081 15.9916 11.3934C15.9916 11.4615 15.9916 11.5296 16.0027 11.5977C13.9797 12.1766 12.5013 13.9357 12.5013 16.0126C12.5013 16.5687 12.6014 17.1022 12.8014 17.5902C12.1567 18.7819 11.7566 20.1892 11.7566 21.0631C11.7566 22.8449 13.4239 22.9357 15.3358 22.9357" stroke="white" stroke-miterlimit="10" stroke-linecap="round" stroke-linejoin="round"/>
<path d="M32.2201 35.6696V32.9798C32.2201 31.1186 31.4753 30.1879 28.8966 29.5864L25.9732 29.0189C24.7616 29.0189 23.7834 28.0202 23.7834 26.7831V24.309" stroke="white" stroke-miterlimit="10" stroke-linecap="round" stroke-linejoin="round"/>
<path d="M17.3366 24.309V26.8172C17.3366 28.0429 16.3695 29.0303 15.1691 29.0303L12.3235 29.5977C9.91147 30.1879 9 31.1186 9 32.9912V35.681" stroke="white" stroke-miterlimit="10" stroke-linecap="round" stroke-linejoin="round"/>
<path d="M15.1692 29.0303C15.1692 29.0303 16.7476 31.3569 20.5824 31.3569C24.4172 31.3569 25.9845 29.0303 25.9845 29.0303" stroke="white" stroke-miterlimit="10" stroke-linecap="round" stroke-linejoin="round"/>
<path d="M26.4512 17.9648C26.4512 17.42 26.1622 16.9433 25.7398 16.7277C25.6398 15.1388 23.7835 14.7869 23.7835 14.7869C20.6378 14.7869 20.938 11.3821 19.4151 12.0064C18.3258 15.4112 17.7923 15.4565 15.8137 16.9774C15.4247 17.2043 14.8245 17.6583 14.8245 18.1804C14.8245 18.7479 15.1246 19.792 15.5581 19.9963C15.9249 22.9017 17.4255 25.6709 20.36 25.6709C23.1833 25.6709 25.2174 22.7315 25.6731 19.7806C26.1289 19.5991 26.4512 18.5436 26.4512 17.9648Z" stroke="white" stroke-miterlimit="10" stroke-linecap="round" stroke-linejoin="round"/>
<path d="M20.582 31.3569V35.6697" stroke="white" stroke-miterlimit="10" stroke-linecap="round" stroke-linejoin="round"/>
</g>
<defs>
<clipPath id="clip0_61_178">
<rect width="42" height="42" fill="white"/>
</clipPath>
</defs>
</svg>
