<svg width="98" height="95" viewBox="0 0 98 95" fill="none" xmlns="http://www.w3.org/2000/svg">
<g clip-path="url(#clip0_1_2)">
<path d="M95.0761 48.4381C95.0493 47.8719 95.0241 47.3056 94.9966 46.7393C95.1146 46.5777 95.0784 46.4482 94.9022 46.3458C94.8346 45.9035 94.7654 45.4612 94.6977 45.0189C94.8078 44.8552 94.7725 44.7257 94.5947 44.6268C94.5349 44.1866 94.4728 43.7456 94.413 43.3075C94.2392 42.1276 94.0669 40.9484 93.5439 39.8444C93.5439 39.749 93.5258 39.6557 93.4896 39.5679C93.4857 39.0177 93.3756 38.498 92.9831 38.0613C92.9485 37.8955 92.9131 37.7319 92.8785 37.5668C92.8667 37.4303 92.8824 37.2847 92.8399 37.1551C92.3082 35.5155 91.6011 33.9351 90.7391 32.4265C90.393 31.8212 90.1822 31.0926 89.494 30.681L89.4909 30.6754C89.5215 30.3703 89.3414 30.1217 89.177 29.8918C88.5297 28.9801 87.8494 28.0871 87.1942 27.1788C85.9632 25.4731 84.5388 23.9156 82.9209 22.517C81.4965 21.2856 80.0603 20.0632 78.5934 18.8784C76.8386 17.4596 74.7708 16.4837 72.7124 15.5072C71.8079 15.0775 70.9341 14.5544 69.8958 14.3997L69.8455 14.3677C69.755 14.2597 69.689 14.0926 69.571 14.0494C67.5032 13.3013 65.4275 12.5825 63.2606 12.0935C60.0932 11.3775 56.8653 10.9986 53.6475 10.5741C52.474 10.4195 51.2761 10.3727 50.0892 10.3601C46.8212 10.3224 43.5909 10.6984 40.3731 11.1874C40.1584 11.2194 39.9846 11.3023 39.8493 11.4569L39.8281 11.4625C39.3703 11.3685 38.9487 11.4242 38.5853 11.7195H38.5737C38.1175 11.6457 37.7117 11.7481 37.3599 12.0288L37.3406 12.0323C36.2234 12.0894 35.1527 12.2983 34.194 12.8625C34.1147 12.8737 34.0432 12.9008 33.9795 12.9433C33.6935 12.8702 33.4731 12.9614 33.3049 13.1773C32.2149 13.4594 31.1634 13.8321 30.1642 14.321C29.6501 14.4123 29.1747 14.5829 28.7707 14.9012C28.703 14.8727 28.6508 14.8887 28.6122 14.9479C28.3648 14.8796 28.2218 14.9862 28.1386 15.191L28.0575 15.1819L28.0111 15.2446C27.7695 15.1819 27.6265 15.2864 27.5318 15.48C27.4622 15.4501 27.4139 15.4675 27.3849 15.5344C27.1394 15.4605 26.9983 15.5741 26.8998 15.7642C26.8379 15.7287 26.7896 15.7412 26.7568 15.8018C24.3253 16.7338 22.1974 18.0892 20.2955 19.7574L20.2433 19.788C18.7068 20.8238 17.3848 22.0873 15.9758 23.2539C14.3542 24.5968 13.0573 26.1988 11.9034 27.8872C10.6684 29.6961 9.44105 31.5098 8.30458 33.3779C7.16237 35.255 6.21145 37.1962 5.46345 39.2224C5.1523 40.0673 4.76375 40.9108 4.74251 41.8309L4.73669 41.8567C4.58017 42.0148 4.43718 42.1785 4.5222 42.4153C4.4526 42.455 4.43718 42.5093 4.4758 42.5755C3.03006 45.5489 2.30723 48.6951 1.87621 51.9082C1.57088 54.1824 1.66943 56.4565 1.92262 58.7362C2.19901 61.2117 2.81172 63.5959 3.85152 65.8881C4.07765 67.0478 4.62272 68.0759 5.37261 69.0183L5.38417 69.0469C5.52142 69.9259 5.99885 70.6454 6.62116 71.298C6.67338 71.4074 6.72364 71.5167 6.77579 71.6268C6.71971 71.7703 6.77965 71.8371 6.9401 71.8336L6.96519 71.9033C6.90722 72.2216 7.13721 72.441 7.30151 72.6716C9.41211 75.6199 11.83 78.3343 14.6016 80.7756C14.7832 80.9358 14.9572 81.1246 15.2394 81.1427C15.278 81.2221 15.336 81.2862 15.4114 81.3384C15.9275 82.0899 16.6077 82.6855 17.4312 83.1452C17.7597 83.7421 18.4169 83.9615 18.9832 84.2833C19.0373 84.6211 19.2963 84.7653 19.6171 84.8461C19.708 84.9596 19.7775 85.0975 19.8954 85.1825C21.3179 86.2127 22.8043 87.1669 24.3853 87.9707C26.5963 89.0942 28.8538 90.1411 31.233 90.9372C32.7329 91.4387 34.2172 92.0071 35.7518 92.3971C37.9339 92.9508 40.1545 93.3841 42.3639 93.8424C44.8918 94.3676 47.4606 94.6838 50.0468 94.6065C53.1796 94.5152 56.3281 94.4212 59.3759 93.6049C59.571 93.5533 59.7841 93.5491 59.9886 93.5352C61.5971 93.4217 63.0813 92.8554 64.6001 92.4347C65.5361 92.1756 66.4343 91.7911 67.3333 91.4296C67.8453 91.2249 68.425 91.103 68.7695 90.6314C71.1795 89.7252 73.1899 88.2138 75.2883 86.8542C75.9781 86.4084 76.7513 85.9445 77.1572 85.1839C77.2736 85.0996 77.3892 85.0133 77.5056 84.929C77.4592 84.8858 77.4104 84.8405 77.364 84.7959C77.4104 84.8405 77.4568 84.8837 77.5056 84.929C78.6783 84.222 81.1528 81.9284 82.0006 80.7582C82.1635 80.722 82.2641 80.6286 82.3066 80.4789C82.7125 80.2219 82.9382 79.8569 83.0562 79.4278C83.2442 79.2279 83.4314 79.0266 83.6186 78.8267C84.096 78.6617 84.2989 78.3037 84.4035 77.8781C84.4727 77.8237 84.5215 77.7555 84.5467 77.6747C84.9486 77.6078 85.0178 77.3383 85.0099 77.0241C85.0642 77.0005 85.1028 76.9628 85.124 76.9106C85.2152 76.9935 85.2884 76.981 85.3214 76.8674C85.3293 76.8423 85.2789 76.8006 85.2538 76.7685C85.3238 76.6821 85.3914 76.5944 85.4606 76.508C85.824 76.4398 85.9963 76.2329 85.9805 75.8909L86.0482 75.7906C86.141 75.8407 86.2071 75.8192 86.222 75.7202C86.2259 75.6987 86.174 75.668 86.1465 75.6415C86.1992 75.5461 86.2495 75.4528 86.3014 75.3574C88.0444 73.2573 89.3123 70.9149 90.4237 68.4931L90.4394 68.459C91.2645 67.215 91.8269 65.8721 92.2138 64.4623C92.2618 64.2987 92.3106 64.135 92.3586 63.9713C92.3586 63.8383 92.3625 63.7073 92.3759 63.5757C92.3625 63.7052 92.357 63.8383 92.3586 63.9713C93.002 62.9753 93.2828 61.8678 93.5069 60.7443C93.5824 60.6747 93.6076 60.5932 93.5785 60.4984C93.7193 60.4246 93.7932 60.3292 93.6886 60.1815C93.7271 59.9872 93.7657 59.7935 93.8066 59.5971C93.9922 59.3297 94.1597 59.058 94.0496 58.7216C94.0787 58.537 94.1078 58.3517 94.1346 58.1665C94.3186 57.8948 94.45 57.6106 94.3265 57.2819C94.369 57.0033 94.4114 56.7261 94.4539 56.4474C94.6781 56.2016 94.6938 55.9028 94.7009 55.6026C94.8904 54.7431 95.0572 53.8821 94.9832 52.9976C94.8944 53.0658 94.8307 53.1431 94.7866 53.2274C94.8307 53.1452 94.8944 53.0679 94.9832 52.9976C95.0147 52.3289 95.047 51.6582 95.0784 50.9895C94.9738 50.5632 94.9062 50.1369 94.8983 49.7128C94.9062 50.139 94.9738 50.5653 95.0784 50.9895C95.3679 50.1369 95.3097 49.2865 95.0761 48.4346V48.4381ZM67.1595 16.7637C66.4131 16.6293 65.669 16.5213 64.9579 16.2441C64.8439 16.1996 64.7275 16.1543 64.6103 16.1132C64.4711 16.0644 64.3295 16.0268 64.1848 15.9983C64.0723 15.9746 63.9567 15.9606 63.8411 15.9565C63.7247 15.953 63.6051 15.9641 63.4832 15.9913C62.9287 15.8743 62.3718 15.7607 61.815 15.6458C60.9301 15.464 60.0468 15.2787 59.169 15.0726C58.7089 14.9646 58.2472 14.8706 57.7816 14.7884C56.3878 14.5418 54.9792 14.3942 53.576 14.211C53.5083 14.0981 53.4423 13.9846 53.3266 13.7889C55.6807 13.69 58.0002 13.6357 60.2615 14.344C60.3056 14.4158 60.3583 14.4701 60.4236 14.4973C60.4566 14.5112 60.4912 14.5188 60.5298 14.5188C60.5683 14.5188 60.6108 14.5112 60.6556 14.4973C60.8451 14.5613 61.0363 14.6087 61.2313 14.6317C61.4264 14.6554 61.6238 14.6554 61.8268 14.6282C62.2633 14.8873 62.7085 15.1192 63.2103 15.1764C63.3786 15.1966 63.5524 15.1945 63.7341 15.1694C63.7695 15.1966 63.8057 15.214 63.8442 15.223C63.8835 15.2321 63.926 15.2342 63.9701 15.2272C64.1038 15.3763 64.254 15.4675 64.4223 15.5107C64.5057 15.5323 64.5922 15.5413 64.6834 15.5379C64.7739 15.5344 64.8691 15.5197 64.9674 15.4933C65.0799 15.5358 65.19 15.588 65.3017 15.6368C65.4142 15.6834 65.5258 15.7266 65.6462 15.7503C65.7248 15.7663 65.8082 15.7733 65.8955 15.7677C65.9938 15.8562 66.0709 15.9801 66.1716 16.0679C66.2723 16.1564 66.3958 16.2086 66.5869 16.1564C66.7788 16.1975 66.9699 16.2393 67.161 16.2803C67.1461 16.4419 67.364 16.6077 67.1571 16.7679L67.1595 16.7637ZM25.3536 28.9299C25.5081 28.6262 25.6647 28.3225 25.8194 28.0168C26.0687 28.0293 26.2252 28.1498 26.2929 28.3692C26.1421 28.558 25.9894 28.7481 25.8386 28.9369C25.6763 28.9334 25.5159 28.932 25.3536 28.9278V28.9299ZM20.9778 78.6979C21.0319 78.7411 21.0898 78.7801 21.1459 78.8219C21.2715 78.9166 21.3952 79.012 21.5286 79.0984C21.4958 79.3338 21.3392 79.4794 21.1227 79.586C21.0551 79.51 20.9874 79.4362 20.9198 79.361C20.8134 79.0246 20.5197 78.9298 20.1911 78.879C20.0133 78.762 19.8355 78.6436 19.6577 78.5265C19.5282 78.2911 19.3079 78.2082 19.0392 78.2124C18.9909 77.869 18.7783 77.6782 18.4072 77.6385C17.3248 76.5045 16.2444 75.3699 15.1601 74.2373C14.6866 73.7428 14.2614 73.2142 13.8613 72.6695C13.6873 72.432 13.5057 72.2 13.3472 71.9521C13.3646 71.7828 13.2796 71.6929 13.0979 71.6804C12.9839 71.4826 12.8698 71.2869 12.7539 71.0891C12.8621 70.9686 12.9916 70.9379 13.1327 71.0319C13.6275 71.3551 13.9541 71.8211 14.3271 72.2467C14.5088 72.457 14.6441 72.7217 14.9978 72.7231C15.0268 72.7572 15.0596 72.783 15.0963 72.8025C15.1331 72.822 15.1756 72.8311 15.2219 72.8345C15.2626 72.9968 15.365 73.1027 15.5429 73.1438C15.5429 73.1856 15.5544 73.2232 15.5718 73.2573C15.5892 73.2915 15.6144 73.3221 15.6472 73.3493C15.6085 73.7679 15.8057 74.0535 16.2174 74.2192C16.5421 74.5013 16.8668 74.7834 17.1934 75.0662C17.2592 75.4402 17.5838 75.5984 17.8873 75.7725C17.8873 75.7725 17.9626 75.8352 17.9626 75.8338C18.4227 76.4356 18.9909 76.9357 19.6499 77.3494C19.7872 77.5131 19.9263 77.6747 20.0694 77.8307C20.3496 78.1386 20.6492 78.4297 20.9759 78.6937L20.9778 78.6979ZM14.4585 77.2428C14.2304 77.0165 14.0101 76.7845 13.7937 76.5491C13.5772 76.3137 13.3608 76.0762 13.1423 75.8428C13.0804 75.7669 13.0167 75.6917 12.9548 75.6179C12.7809 75.3629 12.6051 75.1094 12.4311 74.8538C12.4349 74.6775 12.3422 74.5786 12.1527 74.5557L12.1373 74.5389C12.1644 74.4491 12.1624 74.3592 12.1335 74.2694C12.0445 74.2422 11.9518 74.2339 11.8571 74.2422C11.6947 73.9567 11.5323 73.6711 11.3719 73.3848C11.9266 73.3744 12.2146 73.653 12.3209 74.1273C12.6688 74.268 13.0148 74.4059 13.3627 74.5466L13.3859 74.5696C13.4651 75.1721 13.6951 75.6861 14.3368 75.9592L14.3406 75.9668C14.3174 76.1354 14.4025 76.2329 14.5745 76.274C14.9901 76.6195 15.4694 76.9176 15.8096 77.3188C16.9828 78.6958 18.5328 79.7099 19.8413 80.9539C19.8915 81.0027 19.9573 81.0368 20.0288 81.0654C20.0983 81.096 20.1738 81.1211 20.2414 81.1552C20.2994 81.2987 20.3999 81.3837 20.5796 81.3586L20.6125 81.376C20.7072 81.4122 20.8116 81.4373 20.9082 81.468C21.0068 81.4986 21.0995 81.5362 21.1691 81.5954C22.4351 82.6674 23.9504 83.3848 25.4212 84.1628C26.0435 84.4923 26.7413 84.7005 27.2554 85.202C27.3869 85.3295 27.6226 85.4542 27.7985 85.4395C28.674 85.3713 29.2326 85.8978 29.8608 86.3039C30.0715 86.4411 30.286 86.5721 30.4986 86.7051C30.7595 87.0123 31.1074 87.1404 31.5229 87.153C31.865 87.1634 32.209 87.1906 32.5512 87.2101L32.6169 87.2714C33.1851 87.8969 34.0123 88.0696 34.7971 88.2277C36.4515 88.5607 38.0808 88.9653 39.7062 89.4C40.6862 89.6625 41.7008 89.8276 42.7099 89.9697C43.3691 90.0617 44.018 90.1585 44.6346 90.3835C44.6731 90.4371 44.6944 90.4858 44.7007 90.5311C44.7062 90.5652 44.7022 90.5959 44.6944 90.6265C44.67 90.7164 44.5882 90.7916 44.4977 90.8634L44.4702 90.8564C44.4049 90.7847 44.3334 90.7324 44.2602 90.6948C44.0376 90.5813 43.7844 90.6029 43.5193 90.6732C43.3282 90.669 43.1347 90.6641 42.9435 90.6607C42.7249 90.6474 42.507 90.6349 42.2884 90.621C41.0456 90.4176 39.8029 90.2128 38.5602 90.0094C38.363 89.9648 38.1697 89.9035 37.9765 89.8409C37.3966 89.6535 36.8187 89.4522 36.1712 89.641C35.3073 89.3589 34.4549 89.0385 33.5756 88.8051C32.4951 88.5175 31.5423 87.8843 30.3788 87.8182C30.2029 87.807 30.0424 87.6238 29.8666 87.534C29.4606 87.3257 29.0703 87.0736 28.6393 86.9336C27.0312 86.4084 25.6164 85.5398 24.1224 84.8175C23.5773 84.5529 23.0362 84.2924 22.5684 83.8953C22.1974 83.5784 21.7508 83.2692 21.2773 83.1361C21.1189 83.0916 20.9816 83.0337 20.8637 82.9655C20.5816 82.8018 20.4096 82.5664 20.2839 82.2822C20.2511 82.2091 20.2162 82.1387 20.1911 82.0579C20.0964 82.0273 20.0114 81.9855 19.9302 81.9388C19.849 81.8921 19.7756 81.8385 19.704 81.7807C19.6325 81.7236 19.5649 81.6623 19.4992 81.5975C19.4335 81.5348 19.3697 81.468 19.304 81.4032C19.2035 81.1552 18.9812 81.1065 18.73 81.1051C18.5039 80.9233 18.2758 80.7436 18.0496 80.5618C17.7268 80.1056 17.3093 79.7329 16.8339 79.4146L16.8126 79.393C16.7779 79.2154 16.6561 79.1506 16.4725 79.1666C15.566 78.7369 15.1137 77.9011 14.4547 77.2484L14.4585 77.2428Z" fill="#C1A78C"/>
<path d="M55.9537 32.0127C55.9537 35.5622 52.861 38.4389 49.0455 38.4389C45.23 38.4389 42.1382 35.5622 42.1382 32.0127C42.1382 28.4639 45.23 25.5873 49.0455 25.5873C52.861 25.5873 55.9537 28.4639 55.9537 32.0127Z" stroke="#3C3C3B" stroke-width="3" stroke-linecap="round" stroke-linejoin="round"/>
<path d="M16.4625 79.5247C23.9423 70.2588 41.7661 77.8077 50.5297 81.6031C59.7566 85.5997 70.3245 91.7284 80.8256 90.9476C89.1928 90.3256 96.2102 84.8315 96.2102 76.5777C96.2102 68.6401 89.2926 62.2063 80.7595 62.2063C72.2264 62.2063 49.0353 76.5777 49.0353 76.5777" stroke="#3C3C3B" stroke-width="3" stroke-linecap="round" stroke-linejoin="round"/>
<path d="M81.6239 73.6188C74.1439 82.8847 56.3202 75.3358 47.5566 71.5404C38.3297 67.5438 27.7614 61.4151 17.2607 62.1952C8.89371 62.8172 1.87582 68.3113 1.87582 76.5651C1.87582 84.5027 8.79319 90.9372 17.3264 90.9372C25.8596 90.9372 49.051 76.5651 49.051 76.5651" stroke="#3C3C3B" stroke-width="3" stroke-linecap="round" stroke-linejoin="round"/>
<path d="M49.0392 2.24472C45.6264 15.4968 14.9358 28.8902 43.4092 46.9692C52.3002 52.3233 65.7854 58.6269 65.9474 67.2401" stroke="#3C3C3B" stroke-width="3" stroke-linecap="round" stroke-linejoin="round"/>
<path d="M49.0494 2.24472C52.4622 15.4968 83.1529 28.8902 54.6795 46.9692C46.6238 51.8198 34.7911 57.4525 32.522 64.8775" stroke="#3C3C3B" stroke-width="3" stroke-linecap="round" stroke-linejoin="round"/>
</g>
<defs>
<clipPath id="clip0_1_2">
<rect width="98" height="95" fill="white"/>
</clipPath>
</defs>
</svg>
