<svg width="212" height="239" viewBox="0 0 212 239" fill="none" xmlns="http://www.w3.org/2000/svg">
<path d="M129.5 185.683C161.256 185.683 187 159.939 187 128.183C187 96.4266 161.256 70.683 129.5 70.683C97.7436 70.683 72 96.4266 72 128.183C72 159.939 97.7436 185.683 129.5 185.683Z" fill="#C1A78C"/>
<path d="M96.1806 184.543C95.6556 183.302 94.9756 181.637 94.1975 179.601C92.3619 174.796 89.9812 167.923 87.8034 159.654C83.4462 143.109 79.909 121.005 83.1502 98.7076C86.4054 76.3152 89.4188 60.4949 97.7265 45.9708C105.974 31.5516 119.469 18.3632 143.731 1.33388C155.309 29.881 154.225 50.5413 147.881 67.1398C142.634 80.8673 133.789 91.8382 125.395 102.25C123.547 104.542 121.721 106.807 119.96 109.068C105.784 124.896 99.8925 144.485 97.5396 160.089C96.3622 167.896 96.0692 174.717 96.0705 179.587C96.071 181.591 96.1214 183.266 96.1806 184.543Z" stroke="#27282C"/>
<path d="M108.781 196.305C108.66 195.164 108.511 193.569 108.377 191.616C108.094 187.464 107.885 181.699 108.183 175.246C108.78 162.318 111.408 146.724 119.454 135.782C120.577 134.255 121.62 132.833 122.593 131.505C128.69 123.188 132.053 118.601 135.148 115.521C138.699 111.988 141.886 110.451 148.593 107.541C152.025 106.062 154.689 103.925 157.246 101.504C158.242 100.561 159.211 99.5865 160.202 98.591C161.78 97.0047 163.411 95.3651 165.288 93.7144C171.264 88.4583 179.54 83.2894 195.296 80.821C200.284 108.058 191.181 126.735 179.65 139.173C168.519 151.18 155.115 157.383 149.85 159.82C149.62 159.926 149.406 160.026 149.207 160.118C147.768 160.788 146.101 161.411 144.239 162.106C143.058 162.547 141.799 163.017 140.469 163.547C137.073 164.902 133.299 166.622 129.457 169.175C122.079 174.08 114.491 182.032 108.781 196.305Z" stroke="#27282C"/>
<path d="M106.033 222.841C105.331 222.434 104.385 221.889 103.251 221.239C100.682 219.765 97.1419 217.751 93.2604 215.589C85.5056 211.27 76.3605 206.344 70.8727 203.966C65.4757 201.628 61.0694 198.278 56.7608 194.991L56.6608 194.914C52.4024 191.665 48.221 188.474 43.3181 186.506C33.7433 182.663 24.164 174.691 15.7431 152.984C11.5031 142.054 7.66703 135.26 4.87951 131.189C3.48563 129.154 2.35367 127.799 1.56421 126.948C1.41632 126.789 1.28045 126.647 1.15714 126.522C1.28505 126.511 1.42336 126.5 1.57171 126.488C2.54988 126.41 3.96372 126.316 5.7022 126.252C9.18021 126.123 13.9525 126.113 19.1327 126.587C29.5337 127.538 41.4153 130.428 47.8799 138.051C53.4258 144.591 58.9201 149.41 64.0044 153.87C65.0001 154.743 65.9802 155.603 66.9418 156.459C72.819 161.691 78.0183 166.797 82.0397 174.151C86.0747 181.555 92.242 194.085 97.4046 204.774C99.985 210.117 102.313 214.996 103.996 218.539C104.837 220.311 105.517 221.749 105.987 222.744C106.002 222.777 106.018 222.809 106.033 222.841Z" stroke="#27282C"/>
</svg>
