<svg width="63" height="63" viewBox="0 0 63 63" fill="none" xmlns="http://www.w3.org/2000/svg">
<g clip-path="url(#clip0_58_174)">
<path d="M31.5 62.5C48.6208 62.5 62.5 48.6208 62.5 31.5C62.5 14.3792 48.6208 0.5 31.5 0.5C14.3792 0.5 0.5 14.3792 0.5 31.5C0.5 48.6208 14.3792 62.5 31.5 62.5Z" stroke="#27282C"/>
<path fill-rule="evenodd" clip-rule="evenodd" d="M26.6569 24.2929L20.2929 30.6569C19.9024 31.0474 19.9024 31.6805 20.2929 32.0711L26.6569 38.435C27.0474 38.8256 27.6805 38.8256 28.0711 38.435C28.4616 38.0445 28.4616 37.4113 28.0711 37.0208L23.4142 32.364H43V30.364H23.4142L28.0711 25.7071C28.4616 25.3166 28.4616 24.6834 28.0711 24.2929C27.6805 23.9024 27.0474 23.9024 26.6569 24.2929Z" fill="#C1A78C"/>
</g>
<defs>
<clipPath id="clip0_58_174">
<rect width="63" height="63" fill="white"/>
</clipPath>
</defs>
</svg>
