<svg width="599" height="604" viewBox="0 0 599 604" fill="none" xmlns="http://www.w3.org/2000/svg">
<g clip-path="url(#clip0_17_2)">
<path opacity="0.5" d="M595.323 292.052C586.501 292.052 581.975 295.825 577.983 299.153C574.348 302.185 571.467 304.584 565.253 304.584C559.04 304.584 556.17 302.185 552.524 299.153C548.532 295.825 544.006 292.052 535.184 292.052C526.363 292.052 521.836 295.825 517.846 299.153C514.21 302.185 511.328 304.584 505.116 304.584C498.903 304.584 496.033 302.185 492.387 299.153C488.394 295.825 483.869 292.052 475.047 292.052C466.225 292.052 461.699 295.825 457.707 299.153C454.071 302.185 451.191 304.584 444.977 304.584C438.766 304.584 435.894 302.185 432.248 299.153C428.77 296.258 424.894 293.025 418.137 292.243C417.486 284.14 416.04 276.269 413.873 268.693C417.811 268.408 420.63 269.687 423.983 271.239C427.355 272.793 431.043 274.493 435.999 274.493C437.969 274.493 440.137 274.23 442.557 273.574C451.076 271.27 454.48 266.444 457.487 262.197C460.222 258.318 462.38 255.255 468.383 253.638C474.387 252.012 477.772 253.574 482.067 255.561C486.781 257.737 492.125 260.199 500.643 257.896C509.16 255.592 512.566 250.764 515.571 246.506C518.306 242.63 520.465 239.565 526.467 237.948C532.471 236.321 535.856 237.886 540.151 239.871C544.865 242.048 550.199 244.509 558.727 242.206C567.244 239.904 570.65 235.075 573.657 230.818C576.39 226.94 578.56 223.876 584.563 222.26C586.49 221.742 587.643 219.735 587.119 217.779C586.606 215.836 584.615 214.674 582.676 215.192C574.159 217.494 570.754 222.322 567.746 226.581C565.013 230.458 562.844 233.521 556.852 235.138C550.858 236.765 547.453 235.202 543.168 233.215C538.454 231.04 533.12 228.577 524.592 230.88C516.075 233.184 512.67 238.012 509.662 242.27C506.929 246.146 504.77 249.211 498.766 250.828C492.764 252.444 489.38 250.88 485.084 248.905C480.369 246.728 475.026 244.267 466.508 246.57C457.991 248.872 454.586 253.701 451.578 257.96C448.845 261.837 446.686 264.9 440.682 266.516C434.678 268.143 431.296 266.58 426.999 264.594C422.903 262.704 418.325 260.601 411.598 261.594C408.906 254.007 405.48 246.771 401.394 239.977C405.144 238.656 408.194 239.163 411.851 239.786C416.963 240.653 422.745 241.636 430.383 237.189C438.021 232.741 440.075 227.194 441.877 222.301C443.521 217.843 444.822 214.314 450.206 211.187C455.591 208.049 459.269 208.683 463.92 209.465C469.033 210.332 474.817 211.313 482.455 206.866C490.091 202.418 492.146 196.871 493.948 191.97C495.593 187.51 496.891 183.981 502.277 180.854C507.661 177.716 511.34 178.351 515.992 179.132C521.104 179.999 526.886 180.982 534.535 176.534C542.173 172.085 544.226 166.539 546.039 161.636C547.683 157.178 548.994 153.649 554.368 150.522C556.097 149.508 556.694 147.278 555.699 145.535C554.693 143.792 552.482 143.19 550.753 144.193C543.116 148.641 541.063 154.188 539.261 159.09C537.615 163.549 536.306 167.077 530.93 170.205C525.546 173.343 521.88 172.719 517.217 171.927C512.103 171.061 506.321 170.078 498.683 174.527C491.045 178.974 488.992 184.521 487.19 189.422C485.545 193.881 484.236 197.409 478.861 200.537C473.475 203.664 469.798 203.041 465.146 202.26C460.034 201.393 454.25 200.41 446.612 204.858C438.975 209.306 436.922 214.853 435.12 219.756C433.473 224.214 432.175 227.732 426.789 230.87C421.416 234.008 417.738 233.374 413.076 232.592C408.624 231.832 403.646 230.996 397.381 233.732C392.856 227.151 387.7 221.045 382.001 215.509C385.29 213.236 388.382 212.93 392.08 212.572C397.234 212.075 403.08 211.514 409.314 205.228C415.548 198.943 416.104 193.046 416.596 187.839C417.046 183.105 417.392 179.355 421.793 174.928C426.182 170.501 429.902 170.141 434.595 169.687C439.751 169.191 445.595 168.631 451.84 162.344C458.074 156.058 458.63 150.163 459.121 144.965C459.573 140.231 459.918 136.481 464.319 132.054C468.709 127.627 472.428 127.268 477.121 126.814C482.276 126.317 488.123 125.757 494.367 119.471C500.6 113.185 501.155 107.289 501.649 102.081C502.099 97.3475 502.445 93.5968 506.844 89.17C508.258 87.7437 508.258 85.43 506.844 84.0036C505.43 82.5774 503.136 82.5774 501.721 84.0036C495.487 90.2899 494.932 96.1854 494.44 101.394C493.99 106.127 493.644 109.878 489.243 114.304C484.854 118.731 481.134 119.091 476.44 119.545C471.285 120.041 465.44 120.601 459.196 126.888C452.962 133.174 452.406 139.069 451.914 144.278C451.463 149.011 451.118 152.762 446.717 157.188C442.327 161.615 438.608 161.975 433.915 162.429C428.759 162.925 422.913 163.485 416.669 169.772C410.436 176.058 409.88 181.953 409.387 187.152C408.937 191.885 408.591 195.635 404.192 200.062C399.801 204.489 396.083 204.848 391.388 205.303C386.893 205.736 381.864 206.222 376.511 210.51C370.497 205.344 363.96 200.781 357.013 196.892C359.601 193.86 362.504 192.761 365.972 191.451C370.823 189.623 376.333 187.564 380.744 179.862C385.155 172.159 384.181 166.317 383.32 161.172C382.536 156.481 381.918 152.772 385.019 147.342C388.129 141.911 391.62 140.601 396.039 138.942C400.89 137.115 406.402 135.055 410.812 127.352C415.223 119.65 414.248 113.808 413.39 108.663C412.604 103.972 411.986 100.263 415.088 94.833C418.199 89.4024 421.687 88.0924 426.109 86.4336C430.96 84.6059 436.47 82.5457 440.881 74.8436C445.292 67.1416 444.318 61.2991 443.459 56.1433C442.673 51.4523 442.055 47.744 445.166 42.3136C446.172 40.5703 445.575 38.3305 443.836 37.3267C442.107 36.3231 439.886 36.9146 438.89 38.6685C434.479 46.3706 435.454 52.2131 436.314 57.3689C437.099 62.0599 437.717 65.7682 434.606 71.1986C431.495 76.6291 428.005 77.9392 423.585 79.598C418.734 81.4258 413.222 83.486 408.812 91.1985C404.401 98.9006 405.376 104.743 406.235 109.888C407.021 114.579 407.639 118.288 404.536 123.718C401.436 129.149 397.937 130.459 393.515 132.117C388.664 133.945 383.154 136.005 378.743 143.707C374.332 151.409 375.306 157.252 376.175 162.397C376.961 167.088 377.579 170.796 374.468 176.228C371.366 181.657 367.867 182.967 363.446 184.627C359.223 186.21 354.499 187.986 350.444 193.502C343.352 190.099 335.871 187.384 328.096 185.44C329.815 181.847 332.329 180.04 335.336 177.875C339.559 174.843 344.347 171.409 346.631 162.82C348.914 154.23 346.473 148.842 344.316 144.088C342.356 139.756 340.805 136.343 342.408 130.29C344.022 124.236 347.05 122.059 350.895 119.302C355.117 116.27 359.906 112.836 362.189 104.246C364.472 95.657 362.031 90.2687 359.874 85.5145C357.915 81.1828 356.363 77.7703 357.967 71.7164C359.58 65.6626 362.608 63.4861 366.453 60.7287C370.675 57.6964 375.464 54.2627 377.747 45.6731C380.031 37.0837 377.59 31.6955 375.431 26.9412C373.473 22.6095 371.922 19.197 373.525 13.1431C374.039 11.1991 372.897 9.1917 370.968 8.66344C369.031 8.14574 367.05 9.29734 366.526 11.2519C364.242 19.8413 366.683 25.2295 368.842 29.984C370.802 34.3157 372.351 37.7282 370.748 43.782C369.135 49.8359 366.107 52.0124 362.262 54.7698C358.039 57.8021 353.252 61.2357 350.969 69.8252C348.684 78.4146 351.125 83.8028 353.284 88.5573C355.243 92.889 356.793 96.3015 355.19 102.355C353.576 108.409 350.548 110.586 346.703 113.343C342.483 116.375 337.694 119.809 335.411 128.398C333.125 136.988 335.566 142.376 337.725 147.13C339.685 151.462 341.234 154.875 339.631 160.929C338.03 166.982 334.992 169.159 331.145 171.916C327.478 174.547 323.382 177.495 320.879 183.865C313.931 182.588 306.787 181.922 299.484 181.922C298.73 181.922 297.975 181.932 297.222 181.953C297.964 178.033 299.924 175.626 302.282 172.751C305.582 168.726 309.323 164.161 309.323 155.266C309.323 146.37 305.582 141.806 302.282 137.78C299.275 134.114 296.896 131.209 296.896 124.944C296.896 118.679 299.275 115.784 302.282 112.107C305.582 108.082 309.323 103.517 309.323 94.6217C309.323 85.7258 305.582 81.1617 302.282 77.1363C299.275 73.4701 296.896 70.5647 296.896 64.2995C296.896 58.0345 299.275 55.1397 302.282 51.4629C305.582 47.4375 309.323 42.8734 309.323 33.9775C309.323 25.0817 305.582 20.5175 302.282 16.4922C299.275 12.8261 296.896 9.92069 296.896 3.65555C296.896 1.6376 295.272 0 293.271 0C291.27 0 289.646 1.6376 289.646 3.65555C289.646 12.5514 293.387 17.1156 296.687 21.1409C299.694 24.8071 302.073 27.7124 302.073 33.9775C302.073 40.2427 299.694 43.1375 296.687 46.8143C293.387 50.8397 289.646 55.4038 289.646 64.2995C289.646 73.1955 293.387 77.7595 296.687 81.7849C299.694 85.4511 302.073 88.3565 302.073 94.6217C302.073 100.887 299.694 103.782 296.687 107.458C293.387 111.484 289.646 116.048 289.646 124.944C289.646 133.839 293.387 138.404 296.687 142.429C299.694 146.095 302.073 148.99 302.073 155.255C302.073 161.52 299.694 164.415 296.687 168.092C293.816 171.599 290.61 175.508 289.835 182.323C281.798 182.977 273.994 184.436 266.482 186.624C266.198 182.65 267.467 179.809 269.006 176.427C271.165 171.673 273.606 166.296 271.323 157.696C269.038 149.106 264.251 145.673 260.028 142.64C256.183 139.883 253.145 137.706 251.542 131.653C249.928 125.599 251.48 122.186 253.448 117.854C255.607 113.1 258.048 107.712 255.764 99.1225C253.479 90.5328 248.692 87.0992 244.47 84.0671C240.625 81.3095 237.587 79.1332 235.984 73.0793C234.37 67.0255 235.921 63.6022 237.89 59.2811C240.048 54.5268 242.489 49.1386 240.206 40.5492C237.922 31.9596 233.134 28.5259 228.911 25.4938C225.066 22.7362 222.028 20.5493 220.425 14.506C219.911 12.562 217.922 11.3998 215.993 11.9175C214.066 12.4352 212.913 14.4426 213.426 16.3971C215.711 24.9866 220.498 28.4204 224.72 31.4525C228.565 34.2099 231.604 36.397 233.207 42.4403C234.81 48.4941 233.271 51.9172 231.301 56.2385C229.142 60.9927 226.701 66.381 228.984 74.9704C231.269 83.5599 236.056 86.9937 240.279 90.0258C244.124 92.7832 247.162 94.9597 248.765 101.014C250.368 107.067 248.827 110.48 246.859 114.812C244.7 119.566 242.259 124.954 244.543 133.544C246.828 142.133 251.615 145.567 255.837 148.599C259.682 151.357 262.72 153.533 264.323 159.587C265.927 165.641 264.386 169.053 262.417 173.384C260.541 177.515 258.456 182.133 259.441 188.915C251.919 191.631 244.742 195.085 238.006 199.206C236.695 195.424 237.199 192.349 237.817 188.663C238.676 183.507 239.65 177.675 235.239 169.972C230.828 162.27 225.328 160.2 220.467 158.382C216.045 156.724 212.546 155.414 209.446 149.983C206.343 144.553 206.961 140.855 207.737 136.153C208.596 130.998 209.57 125.166 205.161 117.463C200.75 109.762 195.248 107.691 190.387 105.874C185.967 104.215 182.477 102.905 179.366 97.4742C176.255 92.0437 176.883 88.3354 177.659 83.6445C178.518 78.4887 179.492 72.6567 175.081 64.944C170.67 57.2421 165.169 55.1713 160.308 53.3436C155.887 51.6847 152.388 50.3641 149.286 44.9442C148.281 43.2009 146.07 42.5988 144.341 43.6024C142.613 44.6167 142.015 46.846 143.011 48.5891C147.422 56.2912 152.922 58.362 157.783 60.1897C162.205 61.8486 165.704 63.1691 168.805 68.5891C171.917 74.0196 171.288 77.7279 170.513 82.4188C169.654 87.5746 168.679 93.4066 173.09 101.119C177.501 108.821 183.001 110.892 187.863 112.709C192.284 114.368 195.773 115.678 198.884 121.109C201.996 126.539 201.368 130.237 200.592 134.938C199.734 140.094 198.759 145.926 203.17 153.628C207.579 161.33 213.081 163.401 217.943 165.218C222.364 166.877 225.863 168.187 228.963 173.618C232.076 179.047 231.446 182.745 230.662 187.448C229.907 191.937 229.079 196.956 231.792 203.275C225.266 207.838 219.21 213.035 213.72 218.783C211.468 215.465 211.163 212.35 210.806 208.621C210.315 203.422 209.759 197.527 203.525 191.229C197.293 184.943 191.446 184.383 186.291 183.886C181.597 183.433 177.879 183.083 173.488 178.646C169.098 174.22 168.742 170.469 168.292 165.736C167.799 160.538 167.244 154.642 161.01 148.346C154.776 142.059 148.93 141.499 143.765 141.003C139.071 140.548 135.352 140.2 130.962 135.762C126.572 131.336 126.216 127.585 125.766 122.852C125.273 117.654 124.718 111.758 118.484 105.462C112.25 99.1752 106.404 98.6152 101.239 98.1187C96.5453 97.6644 92.826 97.3158 88.4361 92.8784C87.0217 91.452 84.7273 91.452 83.3129 92.8784C81.8985 94.3046 81.8985 96.6184 83.3129 98.0448C89.5467 104.331 95.3928 104.891 100.558 105.388C105.252 105.842 108.971 106.19 113.361 110.628C117.751 115.055 118.107 118.805 118.558 123.538C119.05 128.737 119.605 134.632 125.839 140.929C132.073 147.215 137.919 147.775 143.074 148.272C147.767 148.726 151.487 149.074 155.876 153.512C160.266 157.939 160.623 161.689 161.073 166.422C161.565 171.621 162.121 177.515 168.354 183.813C174.588 190.099 180.434 190.66 185.6 191.155C190.293 191.61 194.012 191.958 198.402 196.395C202.793 200.822 203.149 204.573 203.599 209.306C204.029 213.849 204.51 218.911 208.764 224.309C203.641 230.373 199.116 236.965 195.26 243.971C192.253 241.361 191.162 238.435 189.864 234.937C188.051 230.046 186.009 224.489 178.37 220.041C170.733 215.593 164.939 216.575 159.837 217.442C155.185 218.234 151.508 218.857 146.122 215.72C140.737 212.592 139.438 209.064 137.793 204.605C135.981 199.713 133.938 194.156 126.3 189.708C118.662 185.26 112.868 186.243 107.766 187.108C103.114 187.901 99.4369 188.524 94.0518 185.386C88.6665 182.249 87.3674 178.73 85.7226 174.272C83.91 169.381 81.867 163.823 74.2189 159.376C66.5811 154.928 60.7874 155.91 55.6852 156.776C51.0334 157.569 47.356 158.192 41.9707 155.054C40.2315 154.051 38.0209 154.642 37.0256 156.396C36.0198 158.139 36.6171 160.379 38.3563 161.383C45.9939 165.831 51.7877 164.848 56.9005 163.982C61.5523 163.19 65.2297 162.566 70.6148 165.704C75.9999 168.842 77.299 172.36 78.944 176.818C80.7565 181.711 82.7995 187.268 90.4478 191.715C98.0854 196.163 103.879 195.18 108.981 194.315C113.633 193.522 117.311 192.899 122.696 196.037C128.081 199.164 129.38 202.693 131.025 207.151C132.838 212.042 134.881 217.601 142.518 222.049C150.156 226.497 155.95 225.514 161.052 224.646C165.704 223.856 169.381 223.231 174.766 226.368C180.141 229.508 181.45 233.025 183.095 237.484C184.667 241.742 186.428 246.506 191.896 250.596C188.522 257.747 185.83 265.291 183.902 273.131C180.341 271.398 178.549 268.863 176.4 265.819C173.393 261.561 169.989 256.733 161.471 254.441C152.953 252.138 147.61 254.599 142.895 256.776C138.6 258.751 135.216 260.315 129.212 258.699C123.209 257.082 121.051 254.017 118.317 250.141C115.31 245.883 111.905 241.055 103.387 238.751C94.869 236.448 89.5257 238.911 84.8111 241.086C80.5155 243.062 77.1315 244.625 71.1281 243.009C65.1248 241.382 62.9667 238.329 60.2321 234.44C57.2253 230.183 53.8202 225.354 45.3024 223.053C36.7741 220.749 31.4414 223.21 26.7268 225.387C22.4312 227.362 19.0366 228.926 13.0438 227.31C11.1056 226.792 9.12544 227.943 8.60159 229.897C8.07774 231.853 9.23021 233.85 11.158 234.368C19.6758 236.671 25.019 234.208 29.7336 232.033C34.0293 230.057 37.4133 228.494 43.4166 230.11C49.4199 231.737 51.5782 234.79 54.3127 238.677C57.3195 242.936 60.7246 247.763 69.2423 250.066C77.7601 252.37 83.1033 249.909 87.8181 247.732C92.1136 245.757 95.4976 244.193 101.501 245.809C107.504 247.425 109.663 250.489 112.397 254.367C115.404 258.624 118.809 263.453 127.327 265.757C135.844 268.06 141.188 265.597 145.902 263.422C150.198 261.445 153.582 259.883 159.585 261.499C165.589 263.116 167.747 266.179 170.481 270.056C173.09 273.754 176.013 277.885 182.331 280.41C181.062 287.414 180.403 294.62 180.403 301.995C180.403 302.755 180.413 303.516 180.434 304.278C176.547 303.526 174.158 301.552 171.309 299.174C167.317 295.846 162.791 292.075 153.97 292.075C145.148 292.075 140.622 295.846 136.63 299.174C132.995 302.206 130.114 304.605 123.901 304.605C117.688 304.605 114.817 302.206 111.171 299.174C107.179 295.846 102.653 292.075 93.8318 292.075C85.0102 292.075 80.4841 295.846 76.4923 299.174C72.8569 302.206 69.9757 304.605 63.7629 304.605C57.55 304.605 54.6794 302.206 51.0334 299.174C47.0416 295.846 42.5155 292.075 33.6939 292.075C24.8724 292.075 20.3463 295.846 16.3546 299.174C12.719 302.206 9.83788 304.605 3.62504 304.605C1.62393 304.605 0 306.242 0 308.26C0 310.278 1.62393 311.915 3.62504 311.915C12.4466 311.915 16.9727 308.144 20.9645 304.816C24.5999 301.784 27.4811 299.385 33.6939 299.385C39.9067 299.385 42.7774 301.784 46.4235 304.816C50.4152 308.144 54.9413 311.915 63.7629 311.915C72.5844 311.915 77.1105 308.144 81.1022 304.816C84.7377 301.784 87.619 299.385 93.8318 299.385C100.045 299.385 102.915 301.784 106.561 304.816C110.553 308.144 115.079 311.915 123.901 311.915C132.722 311.915 137.248 308.144 141.24 304.816C144.876 301.784 147.757 299.385 153.97 299.385C160.182 299.385 163.053 301.784 166.689 304.816C170.167 307.711 174.044 310.944 180.801 311.735C181.45 319.84 182.896 327.711 185.065 335.286C181.127 335.571 178.308 334.292 174.955 332.74C170.24 330.563 164.908 328.102 156.379 330.405C147.862 332.707 144.456 337.536 141.45 341.783C138.715 345.661 136.557 348.724 130.554 350.341C124.55 351.957 121.166 350.405 116.871 348.418C112.156 346.241 106.823 343.78 98.295 346.083C89.7771 348.387 86.3722 353.215 83.3652 357.462C80.6308 361.339 78.4725 364.402 72.4693 366.019C66.4764 367.647 63.0714 366.083 58.7863 364.096C54.0717 361.921 48.7389 359.458 40.2106 361.761C31.6928 364.065 28.2879 368.893 25.2809 373.151C22.5465 377.029 20.3882 380.093 14.3849 381.709C12.4571 382.226 11.3047 384.234 11.8285 386.188C12.2581 387.827 13.7248 388.893 15.3278 388.893C15.6421 388.893 15.9564 388.851 16.2707 388.767C24.7886 386.463 28.1935 381.635 31.2005 377.377C33.9349 373.5 36.0932 370.435 42.0965 368.819C48.0999 367.192 51.4943 368.757 55.7794 370.742C60.494 372.919 65.8268 375.38 74.3551 373.076C82.8729 370.775 86.2778 365.946 89.2848 361.699C92.0192 357.821 94.1775 354.757 100.181 353.141C106.184 351.525 109.568 353.077 113.864 355.064C118.578 357.239 123.922 359.702 132.439 357.398C140.957 355.095 144.362 350.266 147.369 346.019C150.104 342.143 152.262 339.078 158.265 337.461C164.268 335.845 167.652 337.399 171.948 339.386C176.045 341.276 180.623 343.378 187.349 342.385C190.042 349.97 193.468 357.208 197.554 364.001C193.802 365.323 190.754 364.816 187.097 364.191C181.985 363.326 176.201 362.343 168.564 366.791C160.926 371.238 158.873 376.785 157.071 381.688C155.426 386.146 154.116 389.675 148.742 392.802C143.356 395.94 139.69 395.307 135.027 394.524C129.914 393.657 124.131 392.676 116.494 397.124C108.856 401.572 106.802 407.118 105 412.02C103.355 416.48 102.056 420.008 96.671 423.136C91.2859 426.273 87.619 425.649 82.9567 424.858C77.8439 423.991 72.0502 423.008 64.4124 427.455C56.7746 431.903 54.7212 437.45 52.9192 442.353C51.2742 446.811 49.9647 450.34 44.59 453.467C42.8612 454.481 42.2641 456.711 43.2594 458.455C43.9299 459.627 45.1452 460.283 46.4026 460.283C47.0206 460.283 47.6389 460.123 48.215 459.796C55.8528 455.349 57.9062 449.802 59.7187 444.899C61.3636 440.441 62.6732 436.912 68.048 433.784C73.4331 430.647 77.1105 431.28 81.7623 432.062C86.8751 432.93 92.6584 433.911 100.296 429.463C107.934 425.015 109.987 419.468 111.789 414.567C113.434 410.107 114.733 406.579 120.119 403.451C125.504 400.324 129.181 400.949 133.833 401.729C138.946 402.596 144.729 403.579 152.367 399.131C160.004 394.684 162.058 389.137 163.86 384.234C165.505 379.776 166.804 376.247 172.189 373.12C177.564 369.982 181.241 370.615 185.903 371.398C190.356 372.157 195.333 372.993 201.598 370.255C206.124 376.839 211.279 382.945 216.978 388.481C213.689 390.753 210.597 391.06 206.899 391.418C201.745 391.915 195.899 392.475 189.665 398.761C183.431 405.047 182.875 410.943 182.383 416.14C181.933 420.874 181.587 424.624 177.186 429.051C172.797 433.478 169.077 433.838 164.384 434.292C159.229 434.788 153.383 435.349 147.139 441.635C140.905 447.921 140.35 453.817 139.857 459.024C139.407 463.758 139.061 467.508 134.661 471.935C130.271 476.362 126.551 476.722 121.858 477.176C116.703 477.672 110.857 478.233 104.613 484.519C98.3788 490.805 97.8235 496.701 97.3311 501.908C96.8806 506.642 96.5349 510.392 92.1345 514.819C90.7201 516.245 90.7201 518.559 92.1345 519.985C92.8469 520.693 93.769 521.053 94.6908 521.053C95.6129 521.053 96.5453 520.693 97.2473 519.985C103.481 513.699 104.036 507.805 104.529 502.596C104.979 497.862 105.325 494.112 109.725 489.685C114.115 485.258 117.835 484.9 122.528 484.444C127.683 483.948 133.529 483.389 139.773 477.101C146.007 470.815 146.562 464.921 147.055 459.722C147.505 454.989 147.851 451.238 152.251 446.811C156.641 442.384 160.361 442.026 165.054 441.571C170.209 441.074 176.056 440.515 182.299 434.228C188.533 427.942 189.088 422.047 189.58 416.838C190.032 412.105 190.376 408.354 194.777 403.927C199.168 399.5 202.886 399.142 207.579 398.687C212.075 398.254 217.105 397.768 222.458 393.479C228.472 398.645 235.009 403.209 241.967 407.098C239.378 410.13 236.475 411.229 233.008 412.537C228.157 414.366 222.646 416.426 218.235 424.127C213.824 431.831 214.799 437.673 215.668 442.819C216.454 447.509 217.072 451.217 213.961 456.648C210.85 462.077 207.36 463.387 202.94 465.047C198.089 466.875 192.577 468.934 188.166 476.637C183.756 484.339 184.729 490.181 185.59 495.327C186.376 500.017 186.994 503.726 183.881 509.156C180.77 514.587 177.282 515.897 172.86 517.555C168.009 519.383 162.498 521.444 158.087 529.146C153.676 536.847 154.651 542.69 155.51 547.845C156.296 552.537 156.914 556.246 153.802 561.677C152.796 563.42 153.393 565.659 155.133 566.663C155.698 566.99 156.327 567.149 156.945 567.149C158.192 567.149 159.418 566.493 160.088 565.321C164.499 557.618 163.525 551.776 162.666 546.62C161.88 541.93 161.262 538.221 164.373 532.79C167.485 527.359 170.974 526.049 175.394 524.391C180.245 522.564 185.758 520.504 190.167 512.791C194.578 505.089 193.603 499.247 192.745 494.101C191.959 489.41 191.341 485.703 194.453 480.272C197.564 474.841 201.053 473.531 205.474 471.873C210.325 470.044 215.836 467.984 220.247 460.283C224.658 452.579 223.683 446.737 222.825 441.591C222.039 436.901 221.421 433.193 224.521 427.762C227.623 422.333 231.122 421.023 235.544 419.363C239.766 417.778 244.48 416.004 248.545 410.488C255.638 413.891 263.119 416.606 270.893 418.549C269.174 422.142 266.661 423.949 263.654 426.114C259.431 429.146 254.643 432.58 252.359 441.169C250.076 449.758 252.517 455.148 254.674 459.902C256.633 464.234 258.185 467.647 256.581 473.7C254.978 479.754 251.94 481.93 248.095 484.688C243.873 487.72 239.084 491.154 236.801 499.743C234.517 508.333 236.958 513.72 239.115 518.474C241.075 522.806 242.626 526.219 241.023 532.273C239.42 538.327 236.382 540.504 232.537 543.261C228.314 546.293 223.526 549.727 221.242 558.316C218.959 566.905 221.4 572.294 223.557 577.048C225.517 581.38 227.068 584.793 225.465 590.847C224.95 592.791 226.093 594.798 228.022 595.326C228.335 595.411 228.65 595.452 228.963 595.452C230.567 595.452 232.022 594.376 232.464 592.747C234.747 584.158 232.306 578.77 230.148 574.016C228.188 569.684 226.638 566.272 228.242 560.218C229.855 554.164 232.883 551.988 236.728 549.23C240.949 546.198 245.737 542.764 248.021 534.175C250.306 525.586 247.865 520.196 245.706 515.442C243.746 511.11 242.197 507.699 243.8 501.645C245.413 495.592 248.441 493.414 252.286 490.657C256.507 487.625 261.296 484.192 263.579 475.602C265.864 467.011 263.423 461.624 261.264 456.87C259.305 452.538 257.755 449.125 259.358 443.071C260.96 437.017 263.998 434.842 267.843 432.083C271.511 429.453 275.608 426.505 278.111 420.135C285.058 421.412 292.203 422.078 299.516 422.078C300.27 422.078 301.025 422.068 301.778 422.047C301.036 425.967 299.076 428.374 296.718 431.249C293.418 435.275 289.677 439.838 289.677 448.734C289.677 457.63 293.418 462.195 296.718 466.221C299.725 469.886 302.104 472.781 302.104 479.057C302.104 485.332 299.725 488.217 296.718 491.893C293.418 495.919 289.677 500.482 289.677 509.378C289.677 518.274 293.418 522.839 296.718 526.865C299.725 530.53 302.104 533.436 302.104 539.701C302.104 545.966 299.725 548.861 296.718 552.537C293.418 556.563 289.677 561.126 289.677 570.022C289.677 578.918 293.418 583.483 296.718 587.509C299.725 591.174 302.104 594.08 302.104 600.345C302.104 602.363 303.728 604 305.729 604C307.73 604 309.354 602.363 309.354 600.345C309.354 591.449 305.613 586.884 302.313 582.858C299.306 579.193 296.927 576.287 296.927 570.022C296.927 563.757 299.306 560.862 302.313 557.186C305.613 553.16 309.354 548.596 309.354 539.701C309.354 530.805 305.613 526.24 302.313 522.214C299.306 518.549 296.927 515.643 296.927 509.378C296.927 503.113 299.306 500.218 302.313 496.542C305.613 492.516 309.354 487.952 309.354 479.057C309.354 470.161 305.613 465.596 302.313 461.57C299.306 457.905 296.927 454.999 296.927 448.734C296.927 442.469 299.306 439.574 302.313 435.908C305.184 432.4 308.39 428.492 309.165 421.677C317.202 421.023 325.006 419.564 332.518 417.376C332.802 421.35 331.533 424.191 329.994 427.573C327.835 432.327 325.394 437.704 327.677 446.304C329.962 454.893 334.749 458.327 338.972 461.359C342.817 464.118 345.855 466.293 347.458 472.347C349.072 478.401 347.52 481.814 345.552 486.146C343.393 490.9 340.952 496.289 343.236 504.878C345.521 513.468 350.308 516.901 354.52 519.933C358.365 522.69 361.403 524.867 363.006 530.921C364.609 536.975 363.068 540.398 361.1 544.718C358.941 549.474 356.5 554.861 358.784 563.451C361.067 572.04 365.856 575.474 370.078 578.506C373.923 581.264 376.961 583.45 378.565 589.494C378.994 591.131 380.46 592.199 382.063 592.199C382.378 592.199 382.692 592.157 383.007 592.072C384.934 591.555 386.087 589.547 385.564 587.592C383.279 579.002 378.492 575.569 374.269 572.537C370.424 569.78 367.386 567.592 365.783 561.549C364.17 555.495 365.719 552.072 367.689 547.752C369.848 542.996 372.289 537.608 370.005 529.019C367.72 520.43 362.933 516.996 358.711 513.964C354.866 511.206 351.828 509.03 350.225 502.976C348.621 496.922 350.162 493.51 352.131 489.178C354.289 484.424 356.73 479.036 354.447 470.445C352.162 461.856 347.375 458.422 343.153 455.39C339.308 452.633 336.269 450.456 334.666 444.402C333.053 438.348 334.604 434.935 336.572 430.605C338.449 426.474 340.533 421.857 339.548 415.074C347.07 412.359 354.248 408.903 360.984 404.784C362.295 408.565 361.791 411.641 361.173 415.327C360.314 420.483 359.339 426.315 363.74 434.016C368.15 441.72 373.651 443.789 378.513 445.607C382.934 447.266 386.423 448.576 389.534 454.005C392.646 459.436 392.016 463.135 391.242 467.837C390.382 472.993 389.409 478.823 393.818 486.526C398.229 494.228 403.729 496.299 408.591 498.117C413.012 499.775 416.513 501.085 419.613 506.515C422.724 511.946 422.096 515.653 421.32 520.345C420.462 525.501 419.487 531.333 423.898 539.035C428.309 546.738 433.809 548.808 438.671 550.635C443.092 552.295 446.591 553.615 449.693 559.034C450.363 560.207 451.579 560.862 452.835 560.862C453.453 560.862 454.071 560.704 454.648 560.377C456.377 559.363 456.975 557.134 455.979 555.389C451.568 547.688 446.068 545.616 441.207 543.789C436.785 542.131 433.286 540.81 430.184 535.39C427.073 529.959 427.702 526.25 428.477 521.56C429.336 516.404 430.311 510.572 425.899 502.86C421.488 495.157 415.988 493.087 411.127 491.27C406.705 489.61 403.207 488.3 400.106 482.871C396.993 477.44 397.622 473.742 398.397 469.04C399.256 463.884 400.231 458.054 395.82 450.35C391.408 442.649 385.908 440.577 381.047 438.76C376.626 437.102 373.127 435.782 370.026 430.361C366.913 424.93 367.542 421.234 368.328 416.532C369.083 412.042 369.91 407.023 367.197 400.705C373.724 396.141 379.78 390.942 385.27 385.196C387.522 388.512 387.827 391.629 388.183 395.359C388.675 400.558 389.231 406.452 395.465 412.738C401.697 419.025 407.543 419.584 412.699 420.081C417.392 420.536 421.111 420.884 425.501 425.322C429.892 429.749 430.248 433.489 430.698 438.232C431.19 443.431 431.746 449.326 437.98 455.624C444.214 461.909 450.059 462.468 455.214 462.965C459.907 463.42 463.628 463.768 468.016 468.206C472.407 472.633 472.763 476.383 473.213 481.116C473.705 486.315 474.261 492.21 480.495 498.506C486.729 504.793 492.575 505.352 497.74 505.849C502.433 506.304 506.153 506.652 510.544 511.09C511.245 511.808 512.178 512.157 513.099 512.157C514.022 512.157 514.953 511.797 515.656 511.09C517.07 509.664 517.07 507.35 515.656 505.924C509.422 499.638 503.576 499.077 498.411 498.58C493.716 498.127 489.998 497.777 485.607 493.34C481.219 488.913 480.862 485.163 480.412 480.429C479.918 475.232 479.363 469.336 473.13 463.04C466.896 456.754 461.05 456.193 455.884 455.696C451.191 455.243 447.472 454.893 443.082 450.456C438.691 446.029 438.336 442.279 437.885 437.545C437.393 432.348 436.837 426.452 430.603 420.166C424.369 413.88 418.524 413.319 413.369 412.823C408.676 412.369 404.955 412.02 400.567 407.582C396.176 403.157 395.82 399.415 395.369 394.672C394.94 390.129 394.459 385.068 390.205 379.67C395.328 373.606 399.853 367.012 403.709 360.008C406.716 362.618 407.806 365.545 409.105 369.041C410.917 373.933 412.96 379.49 420.598 383.938C428.237 388.386 434.029 387.403 439.131 386.527C443.783 385.734 447.462 385.111 452.846 388.249C458.232 391.387 459.53 394.905 461.175 399.363C462.987 404.254 465.032 409.811 472.668 414.261C480.306 418.709 486.101 417.726 491.203 416.859C495.854 416.066 499.531 415.443 504.917 418.581C510.301 421.718 511.601 425.237 513.246 429.697C515.059 434.588 517.102 440.145 524.74 444.592C532.378 449.04 538.17 448.059 543.283 447.192C547.936 446.399 551.613 445.776 556.997 448.914C557.563 449.241 558.192 449.4 558.81 449.4C560.056 449.4 561.284 448.744 561.954 447.573C562.96 445.828 562.362 443.589 560.622 442.585C552.984 438.137 547.192 439.12 542.09 439.987C537.438 440.778 533.759 441.403 528.375 438.263C522.989 435.126 521.691 431.609 520.046 427.149C518.234 422.258 516.191 416.701 508.553 412.253C500.915 407.806 495.12 408.787 490.018 409.654C485.367 410.447 481.69 411.07 476.304 407.932C470.92 404.794 469.619 401.276 467.975 396.818C466.162 391.925 464.119 386.368 456.481 381.92C448.845 377.472 443.051 378.455 437.949 379.331C433.297 380.124 429.618 380.747 424.234 377.609C418.848 374.471 417.55 370.953 415.905 366.495C414.333 362.237 412.573 357.483 407.104 353.383C410.478 346.23 413.17 338.688 415.098 330.848C418.659 332.581 420.451 335.116 422.6 338.148C425.607 342.406 429.01 347.234 437.53 349.538C446.047 351.841 451.39 349.38 456.104 347.203C460.401 345.227 463.784 343.664 469.787 345.28C475.791 346.907 477.948 349.96 480.684 353.838C483.691 358.096 487.096 362.924 495.614 365.218C504.131 367.519 509.474 365.058 514.19 362.881C518.485 360.906 521.869 359.342 527.871 360.958C533.875 362.575 536.034 365.64 538.768 369.516C541.775 373.774 545.18 378.602 553.698 380.906C556.118 381.56 558.287 381.835 560.255 381.835C565.202 381.835 568.899 380.134 572.274 378.582C576.569 376.605 579.964 375.042 585.957 376.659C587.894 377.176 589.875 376.025 590.398 374.07C590.912 372.126 589.769 370.119 587.842 369.591C579.314 367.287 573.981 369.748 569.266 371.926C564.971 373.902 561.576 375.465 555.583 373.848C549.581 372.221 547.422 369.169 544.687 365.29C541.681 361.033 538.276 356.204 529.758 353.901C521.239 351.599 515.897 354.06 511.182 356.237C506.887 358.212 503.503 359.776 497.499 358.16C491.495 356.531 489.338 353.478 486.603 349.602C483.596 345.344 480.192 340.516 471.673 338.223C463.155 335.919 457.813 338.382 453.098 340.557C448.802 342.534 445.419 344.097 439.415 342.48C433.411 340.864 431.254 337.8 428.519 333.922C425.91 330.225 422.987 326.094 416.669 323.569C417.938 316.563 418.597 309.359 418.597 301.984C418.597 301.223 418.587 300.463 418.566 299.702C422.453 300.453 424.842 302.427 427.691 304.805C431.683 308.133 436.209 311.905 445.031 311.905C453.852 311.905 458.379 308.133 462.369 304.805C466.005 301.773 468.887 299.375 475.099 299.375C481.312 299.375 484.182 301.773 487.828 304.805C491.821 308.133 496.346 311.905 505.168 311.905C513.99 311.905 518.516 308.133 522.508 304.805C526.144 301.773 529.024 299.375 535.238 299.375C541.449 299.375 544.321 301.773 547.967 304.805C551.958 308.133 556.485 311.905 565.305 311.905C574.128 311.905 578.653 308.133 582.645 304.805C586.281 301.773 589.162 299.375 595.375 299.375C597.376 299.375 599 297.737 599 295.719C599 293.701 597.376 292.064 595.375 292.064L595.323 292.052ZM299.474 414.735C237.806 414.735 187.643 364.15 187.643 301.964C187.643 239.776 237.806 189.19 299.474 189.19C361.142 189.19 411.305 239.776 411.305 301.964C411.305 364.15 361.142 414.735 299.474 414.735Z" fill="#C1A78C"/>
</g>
<defs>
<clipPath id="clip0_17_2">
<rect width="599" height="604" fill="white"/>
</clipPath>
</defs>
</svg>
