<svg width="42" height="42" viewBox="0 0 42 42" fill="none" xmlns="http://www.w3.org/2000/svg">
<g clip-path="url(#clip0_61_217)">
<path d="M21 42C32.598 42 42 32.598 42 21C42 9.40202 32.598 0 21 0C9.40202 0 0 9.40202 0 21C0 32.598 9.40202 42 21 42Z" fill="#C1A78C"/>
<path d="M26.48 35.681L26.988 35.0346L27.7076 33.3255C27.7076 33.3255 32.1737 28.1104 32.2054 27.1573C32.2372 26.2041 32.3113 21.7341 32.2689 20.8357C32.2266 19.9373 30.364 20.3865 30.2687 21.7779C30.1841 23.1693 30.0042 25.481 30.0042 25.481L26.734 29.6552" stroke="white" stroke-miterlimit="10" stroke-linecap="round" stroke-linejoin="round"/>
<path d="M22.522 34.9579L23.1887 30.3126C23.1887 30.3126 25.2207 27.7927 26.7764 26.1274C28.3321 24.4512 29.4433 26.1603 29.4433 26.1603" stroke="white" stroke-miterlimit="10" stroke-linecap="round" stroke-linejoin="round"/>
<path d="M15.8017 35.681L15.2937 35.0346L14.5741 33.3255C14.5741 33.3255 10.108 28.1104 10.0762 27.1573C10.0445 26.2041 9.97043 21.7341 10.0127 20.8357C10.0551 19.9373 11.9177 20.3865 12.0129 21.7779C12.0976 23.1693 12.2775 25.481 12.2775 25.481L15.5477 29.6552" stroke="white" stroke-miterlimit="10" stroke-linecap="round" stroke-linejoin="round"/>
<path d="M19.7597 34.9579L19.093 30.3126C19.093 30.3126 17.061 27.7927 15.5053 26.1274C13.9496 24.4512 12.8384 26.1603 12.8384 26.1603" stroke="white" stroke-miterlimit="10" stroke-linecap="round" stroke-linejoin="round"/>
<path d="M21.3022 23.3749C25.3573 23.2796 28.57 19.7991 28.4778 15.6011C28.3857 11.4031 25.0237 8.07729 20.9686 8.17265C16.9135 8.26802 13.7008 11.7485 13.7929 15.9465C13.885 20.1445 17.247 23.4703 21.3022 23.3749Z" stroke="white" stroke-miterlimit="10" stroke-linecap="round" stroke-linejoin="round"/>
<path d="M20.7441 8.18161C20.8182 8.18161 20.8923 8.17065 20.9664 8.17065C22.9243 8.17065 24.5117 9.86882 24.5117 11.9724C24.5117 14.0759 22.9243 15.7741 20.9664 15.7741" stroke="white" stroke-miterlimit="10" stroke-linecap="round" stroke-linejoin="round"/>
<path d="M21.3259 23.3555C21.2518 23.3555 21.1779 23.3665 21.1038 23.3665C19.1459 23.3665 17.5583 21.6683 17.5583 19.5648C17.5583 17.4612 19.1459 15.7631 21.1038 15.7631" stroke="white" stroke-miterlimit="10" stroke-linecap="round" stroke-linejoin="round"/>
<path d="M21.508 12.9292C22.0588 12.6931 22.3204 12.0393 22.0922 11.4691C21.8641 10.8989 21.2326 10.6281 20.6818 10.8643C20.131 11.1005 19.8694 11.7542 20.0976 12.3245C20.3257 12.8947 20.9572 13.1654 21.508 12.9292Z" stroke="white" stroke-miterlimit="10" stroke-linecap="round" stroke-linejoin="round"/>
<path d="M21.3071 20.5533C21.8579 20.3171 22.1195 19.6634 21.8913 19.0931C21.6632 18.5229 21.0317 18.2522 20.4809 18.4883C19.9301 18.7245 19.6685 19.3783 19.8967 19.9485C20.1248 20.5187 20.7563 20.7895 21.3071 20.5533Z" stroke="white" stroke-miterlimit="10" stroke-linecap="round" stroke-linejoin="round"/>
</g>
<defs>
<clipPath id="clip0_61_217">
<rect width="42" height="42" fill="white"/>
</clipPath>
</defs>
</svg>
