<svg width="134" height="154" viewBox="0 0 134 154" fill="none" xmlns="http://www.w3.org/2000/svg">
<g clip-path="url(#clip0_1503_62)">
<path d="M67 58.1073C56.5533 58.1073 48.0542 66.5826 48.0542 77C48.0542 87.4174 56.5533 95.8927 67 95.8927C77.4467 95.8927 85.9458 87.4174 85.9458 77C85.9458 66.5826 77.4467 58.1073 67 58.1073ZM67 94.1267C57.5284 94.1267 49.8252 86.4425 49.8252 77C49.8252 67.5575 57.5309 59.8733 67 59.8733C76.4691 59.8733 84.1748 67.5575 84.1748 77C84.1748 86.4425 76.4691 94.1267 67 94.1267Z" fill="#936037"/>
<path d="M133.611 114.308C123.505 107.517 120.252 102.097 117.637 97.7404C114.105 91.8554 111.528 87.5603 96.4054 83.9058C99.0874 81.3589 103.433 81.2415 108.382 81.1113C113.619 80.9735 119.556 80.8178 124.966 77.7477C125.286 77.5665 125.46 77.2067 125.404 76.8469C125.347 76.4845 125.074 76.1961 124.715 76.1195C119.571 75.0196 116.477 73.6875 113.486 72.3987C109.145 70.5306 105.36 68.9024 96.7841 68.6804C99.8808 65.5796 103.771 63.8085 108.188 61.8001C116.431 58.0511 125.777 53.8045 133.867 39.3575C134.056 39.0206 134.003 38.6021 133.737 38.3213C133.47 38.0406 133.053 37.9666 132.705 38.135C121.754 43.4688 115.418 43.5658 110.327 43.6449C103.451 43.7521 98.4323 43.8312 87.6964 55.0627C86.8263 51.472 88.8967 47.6618 91.2588 43.3208C93.7592 38.7297 96.5896 33.5235 96.628 27.3144C96.628 26.9495 96.4054 26.6203 96.0624 26.4876C95.7195 26.3549 95.3305 26.4467 95.0848 26.7172C91.5583 30.6091 88.8532 32.615 86.2402 34.5545C82.45 37.3669 79.141 39.8245 74.6598 47.1182C73.5133 42.8946 73.9228 38.648 74.386 33.8298C75.2535 24.8364 76.2363 14.6436 67.7346 0.431287C67.5375 0.0995225 67.146 -0.0638078 66.7698 0.0255135C66.3936 0.114835 66.1197 0.438943 66.0916 0.821748C65.2471 12.9465 62.1658 18.4665 59.6885 22.902C56.3436 28.8941 53.9021 33.2683 58.2886 48.1543C54.7338 47.1106 52.4613 43.4178 49.8739 39.2069C47.1356 34.7536 44.0312 29.7031 38.6595 26.5667C38.3421 26.3829 37.9429 26.411 37.6588 26.6407C37.3722 26.8704 37.257 27.2506 37.3696 27.6003C38.9845 32.592 39.376 35.9301 39.7548 39.1584C40.3025 43.8388 40.7811 47.9221 44.8758 55.4429C40.6352 54.3201 37.1521 51.8446 33.1981 49.0348C25.9632 43.8899 17.784 38.0738 1.8197 38.0738C1.50492 38.0738 1.18758 38.0738 0.867677 38.0815C0.481237 38.0866 0.143422 38.3418 0.0308169 38.7118C-0.079229 39.0819 0.0640865 39.48 0.383987 39.6943C10.4903 46.4853 13.7456 51.9058 16.3585 56.2622C19.8903 62.1471 22.4674 66.4397 37.5897 70.0967C34.9077 72.6437 30.5621 72.7611 25.6126 72.8912C20.3765 73.029 14.4391 73.1847 9.02898 76.2573C8.70908 76.4385 8.53506 76.7958 8.59136 77.1582C8.64766 77.5206 8.9215 77.809 9.27979 77.8856C14.4238 78.9855 17.5179 80.3176 20.5096 81.6064C24.8474 83.4745 28.6351 85.1027 37.211 85.3247C34.1143 88.4255 30.2243 90.1966 25.8071 92.205C17.5639 95.9539 8.21772 100.201 0.128067 114.648C-0.0613145 114.984 -0.00757122 115.403 0.258586 115.684C0.430053 115.865 0.662941 115.959 0.900947 115.959C1.03147 115.959 1.16454 115.931 1.28995 115.87C12.2408 110.536 18.5748 110.439 23.6651 110.358C30.5417 110.25 35.5603 110.171 46.2961 98.9398C47.1663 102.531 45.0959 106.341 42.7337 110.682C40.2334 115.273 37.4029 120.479 37.3645 126.688C37.3645 127.053 37.5872 127.382 37.9301 127.515C38.035 127.556 38.1425 127.574 38.25 127.574C38.4957 127.574 38.7362 127.472 38.9077 127.283C42.4343 123.391 45.1394 121.385 47.7523 119.445C51.5425 116.633 54.8516 114.175 59.3327 106.882C60.4793 111.105 60.0698 115.352 59.6066 120.17C58.739 129.164 57.7563 139.356 66.2579 153.569C66.4192 153.839 66.7109 154 67.018 154C67.0871 154 67.1562 153.992 67.2228 153.977C67.599 153.888 67.8728 153.564 67.901 153.181C68.7455 141.056 71.8268 135.536 74.3041 131.101C77.649 125.108 80.0879 120.734 75.704 105.848C79.2587 106.892 81.5313 110.585 84.1186 114.796C86.857 119.249 89.9587 124.299 95.3331 127.436C95.4713 127.518 95.6274 127.556 95.7809 127.556C95.978 127.556 96.175 127.489 96.3363 127.362C96.6229 127.132 96.7381 126.752 96.6255 126.402C95.0106 121.41 94.6191 118.072 94.2403 114.844C93.6926 110.164 93.2141 106.078 89.1193 98.5596C93.3599 99.6825 96.843 102.158 100.797 104.968C108.032 110.113 116.214 115.929 132.175 115.929C132.49 115.929 132.808 115.929 133.127 115.921C133.514 115.916 133.852 115.661 133.962 115.291C134.072 114.921 133.928 114.523 133.609 114.308H133.611ZM67.0001 104.628C51.7216 104.628 39.2941 92.2331 39.2941 77C39.2941 61.7669 51.7217 49.3742 66.9976 49.3717C66.9976 49.3717 66.9976 49.3717 67.0001 49.3717C82.276 49.3717 94.7035 61.7669 94.7035 77C94.7035 92.2331 82.2735 104.628 66.9976 104.628H67.0001ZM121.918 77.268C117.463 79.1054 112.654 79.2305 108.336 79.3453C103.671 79.4678 99.2154 79.5852 96.0676 81.882C96.3363 80.2921 96.477 78.6614 96.477 76.9974C96.477 74.7363 96.2186 72.5339 95.7323 70.4183C104.692 70.5306 108.452 72.1486 112.784 74.0116C115.239 75.0681 117.967 76.242 121.918 77.2654V77.268ZM110.358 45.4032C115.208 45.3267 121.15 45.2348 130.888 40.9219C123.418 52.9317 114.965 56.7751 107.453 60.1897C102.839 62.2875 98.463 64.2832 95.0439 67.9428C94.4706 66.1819 93.7361 64.495 92.8558 62.8974C95.0874 60.6721 99.7349 56.4127 107.85 54.4604C108.326 54.3456 108.618 53.8683 108.503 53.3962C108.388 52.9215 107.909 52.6306 107.436 52.7454C99.2231 54.7207 94.3862 58.9239 91.9293 61.3305C90.9108 59.7253 89.7412 58.2247 88.4386 56.8491C99.0439 45.5844 103.801 45.5079 110.358 45.4058V45.4032ZM87.3023 35.9684C89.4469 34.3759 91.8321 32.6073 94.6933 29.7082C94.0611 34.4729 91.7655 38.6914 89.7054 42.4761C87.4763 46.5721 85.3471 50.4843 85.777 54.3583C82.8288 51.9237 79.3995 50.0479 75.6528 48.8995C80.2312 41.2179 83.5147 38.7782 87.3023 35.9684ZM61.2419 23.7594C63.6015 19.5333 66.4908 14.3552 67.6143 3.78721C74.3092 16.2411 73.4212 25.4642 72.6304 33.6588C72.1441 38.6914 71.686 43.4688 73.1524 48.2513C71.3815 47.8762 69.5516 47.6567 67.6809 47.6133C66.8645 44.5713 65.4902 38.4311 67.8498 30.4509C67.988 29.9839 67.7192 29.4939 67.2509 29.3561C66.7826 29.2182 66.2912 29.4862 66.153 29.9532C63.7627 38.0279 64.9911 44.3033 65.8536 47.6312C63.9214 47.7052 62.0353 47.9655 60.2131 48.3942C55.7396 33.6154 58.0531 29.4709 61.2419 23.7594ZM39.7778 29.4377C43.6013 32.3649 46.1144 36.4584 48.3717 40.1282C50.8106 44.0966 53.142 47.8838 56.7095 49.4559C53.0524 50.8187 49.7383 52.8858 46.9308 55.494C42.5418 47.6899 42.0632 43.6321 41.5181 38.9543C41.2084 36.3052 40.8629 33.3627 39.7753 29.4403L39.7778 29.4377ZM17.8864 55.3536C15.3963 51.204 12.3457 46.1178 3.72887 39.8653C17.8915 40.3119 25.4565 45.6891 32.177 50.469C36.3101 53.409 40.2359 56.1932 45.1317 57.3136C43.8982 58.6738 42.7926 60.1489 41.8278 61.7235C38.7798 60.9094 32.7554 59.026 27.0023 52.993C26.667 52.6408 26.1066 52.6255 25.7508 52.9624C25.3977 53.2992 25.3823 53.8556 25.7201 54.2103C31.5398 60.3148 37.6051 62.3896 40.9269 63.3083C40.044 64.9723 39.3197 66.7281 38.767 68.5604C23.6958 65.0335 21.2517 60.9656 17.8864 55.3562V55.3536ZM12.0872 76.7295C16.5428 74.892 21.3516 74.767 25.6689 74.6521C30.3344 74.5296 34.79 74.4122 37.9378 72.1128C37.6691 73.7028 37.5283 75.3335 37.5283 76.9974C37.5283 79.2585 37.7868 81.4609 38.273 83.5766C29.3132 83.4643 25.5538 81.8463 21.221 79.9833C18.7668 78.9268 16.0361 77.7528 12.0872 76.7295ZM23.6472 108.594C18.7975 108.671 12.855 108.763 3.11722 113.076C10.5875 101.066 19.038 97.2223 26.5519 93.8077C31.1661 91.7099 35.5424 89.7142 38.9615 86.0546C39.5347 87.8155 40.2692 89.5024 41.1496 91.1C38.9179 93.3254 34.2704 97.5847 26.1577 99.537C25.6817 99.6519 25.39 100.129 25.5051 100.601C25.6024 101.004 25.9658 101.278 26.365 101.278C26.4341 101.278 26.5032 101.27 26.5723 101.252C34.7874 99.2767 39.6217 95.0735 42.0786 92.6669C43.0971 94.2722 44.2667 95.7728 45.5693 97.1483C34.964 108.413 30.2064 108.49 23.6497 108.592L23.6472 108.594ZM46.7031 118.029C44.5584 119.622 42.1733 121.39 39.3121 124.289C39.9442 119.525 42.2398 115.306 44.3 111.521C46.529 107.425 48.6583 103.513 48.2283 99.6391C51.1765 102.074 54.6059 103.949 58.3526 105.098C53.7741 112.78 50.4907 115.217 46.7031 118.027V118.029ZM72.7634 130.238C70.4039 134.464 67.5145 139.642 66.391 150.208C59.6961 137.754 60.5842 128.531 61.375 120.336C61.8587 115.303 62.3193 110.526 60.8529 105.744C62.6239 106.119 64.4537 106.338 66.3245 106.382C67.1409 109.424 68.5152 115.564 66.153 123.544C66.0148 124.011 66.2835 124.501 66.7519 124.641C66.8363 124.667 66.9208 124.677 67.0027 124.677C67.384 124.677 67.7372 124.427 67.8523 124.044C70.2426 115.967 69.0142 109.694 68.1517 106.366C70.0839 106.292 71.9701 106.032 73.7922 105.603C78.2657 120.382 75.9522 124.527 72.7634 130.238ZM94.2275 124.56C90.404 121.633 87.8909 117.539 85.6337 113.869C83.1948 109.901 80.8633 106.114 77.2932 104.542C80.9503 103.179 84.2645 101.112 87.072 98.5034C91.461 106.308 91.937 110.365 92.4847 115.043C92.7943 117.692 93.1398 120.635 94.2275 124.557V124.56ZM101.828 103.528C97.6952 100.588 93.7694 97.8042 88.8736 96.6838C90.1072 95.3236 91.2128 93.8485 92.1776 92.2739C95.2256 93.088 101.25 94.9714 107.003 101.004C107.177 101.186 107.41 101.278 107.645 101.278C107.866 101.278 108.083 101.196 108.255 101.035C108.608 100.698 108.623 100.139 108.285 99.7871C102.463 93.6826 96.4003 91.6078 93.0784 90.6891C93.9613 89.0252 94.6856 87.2694 95.2384 85.437C110.31 88.9639 112.754 93.0319 116.119 98.6412C118.609 102.791 121.66 107.877 130.276 114.13C116.114 113.683 108.549 108.306 101.828 103.526V103.528Z" fill="#936037"/>
</g>
<defs>
<clipPath id="clip0_1503_62">
<rect width="134" height="154" fill="white"/>
</clipPath>
</defs>
</svg>
