<svg width="267" height="300" viewBox="0 0 267 300" fill="none" xmlns="http://www.w3.org/2000/svg">
    <path d="M145.429 64.0358C145.429 64.0358 171.433 119.17 163.264 175.367C155.095 231.565 148.092 255.231 86.3269 298.451C56.5335 225.791 91.5488 193.227 115.964 161.871C151.342 122.388 145.429 64.0358 145.429 64.0358Z" fill="#C1A78C" />
    <path d="M130.8 50.2065C130.8 50.2065 138.011 101.343 117.585 129.119C97.1598 156.895 97.5941 157.463 80.758 164.767C63.9141 172.023 61.9589 192.282 21.3885 198.438C8.29939 128.984 67.602 103.164 79.4729 97.6354C91.3437 92.1072 116.373 88.7836 130.8 50.2065Z" fill="#C1A78C" />
    <path d="M267 140.861C267 140.861 223.005 145.851 206.43 126.305C189.855 106.76 173.687 99.5482 163.486 80.8931C153.341 62.278 132.499 17.932 132.499 17.932C132.499 17.932 164.593 36.6575 178.301 42.5968C192.009 48.5362 200.65 59.5999 212.868 64.5038C225.085 69.4077 237.212 79.5699 247.827 106.931C258.441 134.293 267 140.861 267 140.861Z" fill="#C1A78C" />
</svg>